<?xml version="1.0" encoding="UTF-8" standalone="no"?>
<!DOCTYPE svg PUBLIC "-//W3C//DTD SVG 1.1//EN"
"http://www.w3.org/Graphics/SVG/1.1/DTD/svg11.dtd">
<svg version="1.1" xmlns="http://www.w3.org/2000/svg"
xmlns:xlink="http://www.w3.org/1999/xlink" xml:space="preserve"
 width="1617" height="1587" viewBox="0 0 1617 1587">
 onmousemove="movetip(evt)" onmouseup="endmove()">
<rect x="0" y="0" width="100%" height="100%" style="fill:White;"/>
<script type="application/ecmascript"> <![CDATA[
var dragtipid = null; var dragcase = false; function init(evt){
if (window.svgDocument==null) svgDocument = evt.target.ownerDocument;
}
function movetip(evt){if (dragtipid!=null){ dragcase = true;
var tip=svgDocument.getElementById(dragtipid);
tip.setAttributeNS(null,"x",evt.clientX-2);
tip.setAttributeNS(null,"y",evt.clientY-2);
}}
function endmove(){dragtipid = null;}
function startmove(evt,id){dragtipid = id; dragcase = false;
var tip=svgDocument.getElementById(dragtipid);
tip.setAttributeNS(null,"x",evt.clientX-2);
tip.setAttributeNS(null,"y",evt.clientY-2);
}
function Showtip(evt,id){ dragtipid = null;
var tip=svgDocument.getElementById(id);
var vis=tip.getAttributeNS(null,"visibility");
if (vis=="hidden"){
tip.setAttributeNS(null,"x",evt.clientX-2);
tip.setAttributeNS(null,"y",evt.clientY-2);
tip.setAttributeNS(null,"visibility","visible");
}}
function Hidetip(id){ dragtipid = null; if (dragcase==false){
var tip=svgDocument.getElementById(id);
tip.setAttributeNS(null,"visibility","hidden");
}}
]]></script>
<defs><linearGradient id="activ1" x1="0%" y1="0%" x2="100%" y2="0%">
<stop offset="0%" style="stop-color:#FFFF00;stop-opacity:1"/>
<stop offset="100%" style="stop-color:#FFFFF0;stop-opacity:1"/>
</linearGradient></defs>
<g id="2002689818"><polygon points="27,1243 331,1243 331,1288 27,1288 "
style="fill:#F4D03F; stroke-width:1;stroke:Black;"/>
<text style="font-family:Arial;font-size:12px;kerning:0;word-spacing:-1px;fill:Black;font-weight:bold;">
<tspan x="102" y="1258">owl:AnnotationProperty (5)</tspan>
</text>
<line x1="31" y1="1261" x2="329" y2="1261"
 style="stroke-width:1;stroke:Black;"/>
<text style="font-family:Arial;font-size:12px;kerning:0;word-spacing:-1px;fill:Black;">
<tspan x="31" y="1273">rdf:type (6) [*]  -&gt; IRI</tspan>
</text>
</g>
<g id="2002689796"><polygon points="27,1336 331,1336 331,1447 27,1447 "
style="fill:#F4D03F; stroke-width:1;stroke:Black;"/>
<text style="font-family:Arial;font-size:12px;kerning:0;word-spacing:-1px;fill:Black;font-weight:bold;">
<tspan x="132" y="1351">owl:Ontology (1)</tspan>
</text>
<line x1="31" y1="1354" x2="329" y2="1354"
 style="stroke-width:1;stroke:Black;"/>
<text style="font-family:Arial;font-size:12px;kerning:0;word-spacing:-1px;fill:Black;">
<tspan x="31" y="1366">owl:imports (1) [1] D -&gt; IRI</tspan>
<tspan x="31" y="1381">owl:priorVersion (1) [1] D -&gt; IRI</tspan>
<tspan x="31" y="1396">owl:versionInfo (1) [1] D</tspan>
<tspan x="31" y="1411">rdf:type (1) [*]  -&gt; IRI</tspan>
<tspan x="31" y="1426">rdfs:comment (1) [1] D</tspan>
<tspan x="31" y="1441">rdfs:isDefinedBy (3) [*] D -&gt; IRI</tspan>
</text>
</g>
<g id="2002689884"><polygon points="49,251 352,251 352,1170 49,1170 "
style="fill:#F4D03F; stroke-width:1;stroke:Black;"/>
<text style="font-family:Arial;font-size:12px;kerning:0;word-spacing:-1px;fill:Black;font-weight:bold;">
<tspan x="133" y="266">:QuadMapFormat (130)</tspan>
</text>
<line x1="53" y1="269" x2="350" y2="269"
 style="stroke-width:1;stroke:Black;"/>
<text style="font-family:Arial;font-size:12px;kerning:0;word-spacing:-1px;fill:Black;">
<tspan x="53" y="281">:noInherit (56) [*] D -&gt; IRI</tspan>
<tspan x="53" y="296">:qmf01blankOfShortTmpl (2) [1] D</tspan>
<tspan x="53" y="311">:qmf01uriOfShortTmpl (2) [1] D</tspan>
<tspan x="53" y="326">:qmfBoolOfShortTmpl (47) [1] D</tspan>
<tspan x="53" y="341">:qmfBoolTmpl (42) [1] D</tspan>
<tspan x="53" y="356">:qmfCmpFuncName (39) [1] D</tspan>
<tspan x="53" y="371">:qmfColumnCount (31) [1] D</tspan>
<tspan x="53" y="386">:qmfCustomString1 (12) [1] D</tspan>
<tspan x="53" y="401">:qmfDatatypeOfShortTmpl (31) [1] D</tspan>
<tspan x="53" y="416">:qmfDatatypeTmpl (2) [1] D</tspan>
<tspan x="53" y="431">:qmfDtpOfNiceSqlval (6) [1] D</tspan>
<tspan x="53" y="446">:qmfExistingShortOfLongTmpl (2) [1] D</tspan>
<tspan x="53" y="461">:qmfExistingShortOfSqlvalTmpl (2) [1] D</tspan>
<tspan x="53" y="476">:qmfExistingShortOfTypedsqlvalTmpl (2) [1] D</tspan>
<tspan x="53" y="491">:qmfExistingShortOfUriTmpl (2) [1] D</tspan>
<tspan x="53" y="506">:qmfHasCheapSqlval (22) [1] D</tspan>
<tspan x="53" y="521">:qmfIidOfShortTmpl (57) [1] D</tspan>
<tspan x="53" y="536">:qmfIsBijection (47) [1] D</tspan>
<tspan x="53" y="551">:qmfIsStable (47) [1] D</tspan>
<tspan x="53" y="566">:qmfIsSubformatOfLong (8) [1] D</tspan>
<tspan x="53" y="581">:qmfIsSubformatOfLongWhenEqToSql (2) [1] D</tspan>
<tspan x="53" y="596">:qmfIsSubformatOfLongWhenRef (4) [1] D</tspan>
<tspan x="53" y="611">:qmfIsblankOfShortTmpl (31) [1] D</tspan>
<tspan x="53" y="626">:qmfIslitOfShortTmpl (31) [1] D</tspan>
<tspan x="53" y="641">:qmfIsnumericOfShortTmpl (19) [1] D</tspan>
<tspan x="53" y="656">:qmfIsrefOfShortTmpl (31) [1] D</tspan>
<tspan x="53" y="671">:qmfIsuriOfShortTmpl (31) [1] D</tspan>
<tspan x="53" y="686">:qmfLanguageOfShortTmpl (31) [1] D</tspan>
<tspan x="53" y="701">:qmfLanguageTmpl (4) [1] D</tspan>
<tspan x="53" y="716">:qmfLongOfShortTmpl (45) [1] D</tspan>
<tspan x="53" y="731">:qmfLongTmpl (45) [1] D</tspan>
<tspan x="53" y="746">:qmfMapsOnlyNullToNull (40) [1] D</tspan>
<tspan x="53" y="761">:qmfName (130) [1] D</tspan>
<tspan x="53" y="776">:qmfOkForAnySqlvalue (31) [1] D</tspan>
<tspan x="53" y="791">:qmfShortOfLongTmpl (31) [1] D</tspan>
<tspan x="53" y="806">:qmfShortOfNiceSqlvalTmpl (6) [1] D</tspan>
<tspan x="53" y="821">:qmfShortOfSqlvalTmpl (31) [1] D</tspan>
<tspan x="53" y="836">:qmfShortOfTypedsqlvalTmpl (31) [1] D</tspan>
<tspan x="53" y="851">:qmfShortOfUriTmpl (31) [1] D</tspan>
<tspan x="53" y="866">:qmfShortTmpl (31) [1] D</tspan>
<tspan x="53" y="881">:qmfSparqlEbvOfShortTmpl (37) [1] D</tspan>
<tspan x="53" y="896">:qmfSparqlEbvTmpl (29) [1] D</tspan>
<tspan x="53" y="911">:qmfSqlvalOfShortTmpl (53) [1] D</tspan>
<tspan x="53" y="926">:qmfSqlvalTmpl (53) [1] D</tspan>
<tspan x="53" y="941">:qmfStrsqlvalOfShortTmpl (53) [1] D</tspan>
<tspan x="53" y="956">:qmfTypemaxTmpl (39) [1] D</tspan>
<tspan x="53" y="971">:qmfTypeminTmpl (39) [1] D</tspan>
<tspan x="53" y="986">:qmfUriIdOffset (39) [1] D</tspan>
<tspan x="53" y="1001">:qmfUriOfShortTmpl (45) [1] D</tspan>
<tspan x="53" y="1016">:qmfValRange-rvrDatatype (7) [1] D</tspan>
<tspan x="53" y="1031">:qmfValRange-rvrLanguage (1) [1] D</tspan>
<tspan x="53" y="1046">:qmfValRange-rvrRestrictions (172) [*] D -&gt; IRI</tspan>
<tspan x="53" y="1061">:qmfWrapDistinct (2) [1] D</tspan>
<tspan x="53" y="1076">rdf:type (130) [*]  -&gt; IRI</tspan>
</text>
</g>
<g id="2002689807"><polygon points="599,963 903,963 903,1086 599,1086 "
style="fill:#F4D03F; stroke-width:1;stroke:Black;"/>
<text style="font-family:Arial;font-size:12px;kerning:0;word-spacing:-1px;fill:Black;font-weight:bold;">
<tspan x="664" y="978">:array-of-QuadMapFormat (98)</tspan>
</text>
<line x1="603" y1="982" x2="901" y2="982"
 style="stroke-width:1;stroke:Black;"/>
<text style="font-family:Arial;font-size:12px;kerning:0;word-spacing:-1px;fill:Black;">
<tspan x="603" y="994">rdf:type (98) [*]  -&gt; IRI</tspan>
</text>
</g>
<g id="2002689829"><polygon points="625,692 929,692 929,758 625,758 "
style="fill:#F4D03F; stroke-width:1;stroke:Black;"/>
<text style="font-family:Arial;font-size:12px;kerning:0;word-spacing:-1px;fill:Black;font-weight:bold;">
<tspan x="716" y="707">:QuadMapColumn (8)</tspan>
</text>
<line x1="629" y1="710" x2="927" y2="710"
 style="stroke-width:1;stroke:Black;"/>
<text style="font-family:Arial;font-size:12px;kerning:0;word-spacing:-1px;fill:Black;">
<tspan x="629" y="722">:qmvcAlias (8) [1] D</tspan>
<tspan x="629" y="737">:qmvcColumnName (8) [1] D</tspan>
<tspan x="629" y="752">rdf:type (8) [*]  -&gt; IRI</tspan>
</text>
</g>
<g id="2002689895"><polygon points="1007,692 1311,692 1311,758 1007,758 "
style="fill:#F4D03F; stroke-width:1;stroke:Black;"/>
<text style="font-family:Arial;font-size:12px;kerning:0;word-spacing:-1px;fill:Black;font-weight:bold;">
<tspan x="1100" y="707">:QuadMapATable (2)</tspan>
</text>
<line x1="1011" y1="710" x2="1309" y2="710"
 style="stroke-width:1;stroke:Black;"/>
<text style="font-family:Arial;font-size:12px;kerning:0;word-spacing:-1px;fill:Black;">
<tspan x="1011" y="722">:qmvaAlias (2) [1] D</tspan>
<tspan x="1011" y="737">:qmvaTableName (2) [1] D</tspan>
<tspan x="1011" y="752">rdf:type (2) [*]  -&gt; IRI</tspan>
</text>
</g>
<g id="2002689862"><polygon points="1046,20 1350,20 1350,66 1046,66 "
style="fill:#F4D03F; stroke-width:1;stroke:Black;"/>
<text style="font-family:Arial;font-size:12px;kerning:0;word-spacing:-1px;fill:Black;font-weight:bold;">
<tspan x="1147" y="35">:array-of-string (2)</tspan>
</text>
<line x1="1050" y1="38" x2="1348" y2="38"
 style="stroke-width:1;stroke:Black;"/>
<text style="font-family:Arial;font-size:12px;kerning:0;word-spacing:-1px;fill:Black;">
<tspan x="1050" y="50">rdf:type (2) [*]  -&gt; IRI</tspan>
</text>
</g>
<g id="2002689708"><polygon points="626,424 930,424 930,506 626,506 "
style="fill:#F4D03F; stroke-width:1;stroke:Black;"/>
<polygon points="623,427 927,427 927,509 623,509 "
style="fill:#F4D03F; stroke-width:1;stroke:Black;"/>
<text style="font-family:Arial;font-size:12px;kerning:0;word-spacing:-1px;fill:Black;font-weight:bold;">
<tspan x="664" y="442">:array-of-QuadMapColumn or :array-of-</tspan>
<tspan x="692" y="458">QuadMapATable G101 (~10)</tspan>
</text>
<line x1="627" y1="461" x2="925" y2="461"
 style="stroke-width:1;stroke:Black;"/>
<text style="font-family:Arial;font-size:12px;kerning:0;word-spacing:-1px;fill:Black;">
<tspan x="627" y="473">rdf:type (10) [*]  -&gt; IRI</tspan>
</text>
<text style="font-family:Arial;font-size:11px;kerning:0;word-spacing:-1px;fill:Black;font-weight:bold;">
<tspan x="627" y="489">:array-of-QuadMapATable (2)</tspan>
<tspan x="627" y="504">:array-of-QuadMapColumn (8)</tspan>
</text>
</g>
<g id="2002689906"><polygon points="604,271 908,271 908,337 604,337 "
style="fill:#F4D03F; stroke-width:1;stroke:Black;"/>
<text style="font-family:Arial;font-size:12px;kerning:0;word-spacing:-1px;fill:Black;font-weight:bold;">
<tspan x="700" y="286">:QuadMapValue (8)</tspan>
</text>
<line x1="608" y1="289" x2="906" y2="289"
 style="stroke-width:1;stroke:Black;"/>
<text style="font-family:Arial;font-size:12px;kerning:0;word-spacing:-1px;fill:Black;">
<tspan x="608" y="301">:qmvColumnsFormKey (8) [1] D</tspan>
<tspan x="608" y="316">:qmvTableName (8) [1] D</tspan>
<tspan x="608" y="331">rdf:type (8) [*]  -&gt; IRI</tspan>
</text>
</g>
<g id="2002689752"><polygon points="1044,215 1348,215 1348,344 1044,344 "
style="fill:#F4D03F; stroke-width:1;stroke:Black;"/>
<text style="font-family:Arial;font-size:12px;kerning:0;word-spacing:-1px;fill:Black;font-weight:bold;">
<tspan x="1140" y="230">:QuadMapFText (4)</tspan>
</text>
<line x1="1048" y1="233" x2="1346" y2="233"
 style="stroke-width:1;stroke:Black;"/>
<text style="font-family:Arial;font-size:12px;kerning:0;word-spacing:-1px;fill:Black;">
<tspan x="1048" y="245">:qmvftAlias (2) [1] D</tspan>
<tspan x="1048" y="260">:qmvftColumnName (4) [1] D</tspan>
<tspan x="1048" y="275">:qmvftTableName (2) [1] D</tspan>
<tspan x="1048" y="290">:qmvftXmlIndex (3) [1] D</tspan>
<tspan x="1048" y="305">rdf:type (4) [*]  -&gt; IRI</tspan>
</text>
</g>
<g id="2002689785"><polygon points="629,109 862,109 862,178 629,178 "
style="fill:#F4D03F; stroke-width:1;stroke:Black;"/>
<text style="font-family:Arial;font-size:12px;kerning:0;word-spacing:-1px;fill:Black;font-weight:bold;">
<tspan x="707" y="124">:QuadMap (2)</tspan>
</text>
<line x1="634" y1="128" x2="860" y2="128"
 style="stroke-width:1;stroke:Black;"/>
<text style="font-family:Arial;font-size:12px;kerning:0;word-spacing:-1px;fill:Black;">
<tspan x="634" y="140">:qmMatchingFlags (2) [1] D -&gt; IRI</tspan>
<tspan x="634" y="155">:qmTableName (2) [1] D</tspan>
<tspan x="634" y="170">rdf:type (2) [*]  -&gt; IRI</tspan>
</text>
</g>
<g id="2002689719"><polygon points="57,150 360,150 360,200 57,200 "
style="fill:#F4D03F; stroke-width:1;stroke:Black;"/>
<text style="font-family:Arial;font-size:12px;kerning:0;word-spacing:-1px;fill:Black;font-weight:bold;">
<tspan x="159" y="165">:QuadStorage (3)</tspan>
</text>
<line x1="61" y1="168" x2="358" y2="168"
 style="stroke-width:1;stroke:Black;"/>
<text style="font-family:Arial;font-size:12px;kerning:0;word-spacing:-1px;fill:Black;">
<tspan x="61" y="180">:qsMatchingFlags (2) [1] D -&gt; IRI</tspan>
<tspan x="61" y="195">rdf:type (3) [*]  -&gt; IRI</tspan>
</text>
</g>
<g id="2002689741"><polygon points="64,39 367,39 367,85 64,85 "
style="fill:#F4D03F; stroke-width:1;stroke:Black;"/>
<text style="font-family:Arial;font-size:12px;kerning:0;word-spacing:-1px;fill:Black;font-weight:bold;">
<tspan x="152" y="54">:array-of-QuadMap (3)</tspan>
</text>
<line x1="68" y1="58" x2="365" y2="58"
 style="stroke-width:1;stroke:Black;"/>
<text style="font-family:Arial;font-size:12px;kerning:0;word-spacing:-1px;fill:Black;">
<tspan x="68" y="70">rdf:type (3) [*]  -&gt; IRI</tspan>
</text>
</g>
<g id="2002689851"><polygon points="444,1227 748,1227 748,1277 444,1277 "
style="fill:#F4D03F; stroke-width:1;stroke:Black;"/>
<text style="font-family:Arial;font-size:12px;kerning:0;word-spacing:-1px;fill:Black;font-weight:bold;">
<tspan x="554" y="1242">n1:User (1285)</tspan>
</text>
<line x1="448" y1="1245" x2="746" y2="1245"
 style="stroke-width:1;stroke:Black;"/>
<text style="font-family:Arial;font-size:12px;kerning:0;word-spacing:-1px;fill:Black;">
<tspan x="448" y="1257">n1:userId (1285) [1] D</tspan>
<tspan x="448" y="1272">rdf:type (1285) [*]  -&gt; IRI</tspan>
</text>
</g>
<g id="2002689774"><polygon points="438,1357 742,1357 742,1438 438,1438 "
style="fill:#F4D03F; stroke-width:1;stroke:Black;"/>
<text style="font-family:Arial;font-size:12px;kerning:0;word-spacing:-1px;fill:Black;font-weight:bold;">
<tspan x="530" y="1372">n1:Enrollment (8524)</tspan>
</text>
<line x1="442" y1="1375" x2="740" y2="1375"
 style="stroke-width:1;stroke:Black;"/>
<text style="font-family:Arial;font-size:12px;kerning:0;word-spacing:-1px;fill:Black;">
<tspan x="442" y="1387">n1:enrollmentNumberOfClicks (8524) [1] D</tspan>
<tspan x="442" y="1402">n1:enrollmentNumberOfSubmissions (8524) [1] D</tspan>
<tspan x="442" y="1417">n1:enrollmentRole (8524) [1] D</tspan>
<tspan x="442" y="1432">rdf:type (8524) [*]  -&gt; IRI</tspan>
</text>
</g>
<g id="2002689873"><polygon points="441,1511 745,1511 745,1577 441,1577 "
style="fill:#F4D03F; stroke-width:1;stroke:Black;"/>
<text style="font-family:Arial;font-size:12px;kerning:0;word-spacing:-1px;fill:Black;font-weight:bold;">
<tspan x="551" y="1526">n1:Course (93)</tspan>
</text>
<line x1="445" y1="1529" x2="743" y2="1529"
 style="stroke-width:1;stroke:Black;"/>
<text style="font-family:Arial;font-size:12px;kerning:0;word-spacing:-1px;fill:Black;">
<tspan x="445" y="1541">n1:courseId (93) [1] D</tspan>
<tspan x="445" y="1556">n1:courseSource (93) [1] D</tspan>
<tspan x="445" y="1571">rdf:type (93) [*]  -&gt; IRI</tspan>
</text>
</g>
<g id="2002689840"><polygon points="898,1249 1201,1249 1201,1315 898,1315 "
style="fill:#F4D03F; stroke-width:1;stroke:Black;"/>
<text style="font-family:Arial;font-size:12px;kerning:0;word-spacing:-1px;fill:Black;font-weight:bold;">
<tspan x="1012" y="1264">owl:Class (3)</tspan>
</text>
<line x1="902" y1="1267" x2="1199" y2="1267"
 style="stroke-width:1;stroke:Black;"/>
<text style="font-family:Arial;font-size:12px;kerning:0;word-spacing:-1px;fill:Black;">
<tspan x="902" y="1279">owl:unionOf (1) [1] D -&gt; IRI</tspan>
<tspan x="902" y="1294">rdf:type (3) [*]  -&gt; IRI</tspan>
<tspan x="902" y="1309">rdfs:label (2) [1] </tspan>
</text>
</g>
<g id="2002689697"><polygon points="891,1380 1194,1380 1194,1446 891,1446 "
style="fill:#F4D03F; stroke-width:1;stroke:Black;"/>
<text style="font-family:Arial;font-size:12px;kerning:0;word-spacing:-1px;fill:Black;font-weight:bold;">
<tspan x="996" y="1395">rdf:Property (23)</tspan>
</text>
<line x1="895" y1="1399" x2="1192" y2="1399"
 style="stroke-width:1;stroke:Black;"/>
<text style="font-family:Arial;font-size:12px;kerning:0;word-spacing:-1px;fill:Black;">
<tspan x="895" y="1411">rdf:type (28) [*]  -&gt; IRI</tspan>
<tspan x="895" y="1426">rdfs:label (23) [1] </tspan>
<tspan x="895" y="1441">rdfs:subPropertyOf (2) [1] D -&gt; IRI</tspan>
</text>
</g>
<g id="2002689763"><polygon points="1303,1258 1607,1258 1607,1339 1303,1339 "
style="fill:#F4D03F; stroke-width:1;stroke:Black;"/>
<text style="font-family:Arial;font-size:12px;kerning:0;word-spacing:-1px;fill:Black;font-weight:bold;">
<tspan x="1416" y="1273">sd:Service (1)</tspan>
</text>
<line x1="1308" y1="1276" x2="1605" y2="1276"
 style="stroke-width:1;stroke:Black;"/>
<text style="font-family:Arial;font-size:12px;kerning:0;word-spacing:-1px;fill:Black;">
<tspan x="1308" y="1288">rdf:type (1) [*]  -&gt; IRI</tspan>
<tspan x="1308" y="1303">sd:feature (2) [*] D -&gt; IRI</tspan>
<tspan x="1308" y="1318">sd:resultFormat (8) [*] D -&gt; IRI</tspan>
<tspan x="1308" y="1333">sd:supportedLanguage (1) [1] D -&gt; IRI</tspan>
</text>
</g>
<g id="2002689730"><polygon points="919,1526 1222,1526 1222,1572 919,1572 "
style="fill:#F4D03F; stroke-width:1;stroke:Black;"/>
<text style="font-family:Arial;font-size:12px;kerning:0;word-spacing:-1px;fill:Black;font-weight:bold;">
<tspan x="998" y="1541">owl:OntologyProperty (4)</tspan>
</text>
</g>
<g id="2002689640"><path d="M599,975 L352,975 "
style="fill:none;stroke-width:1;stroke:Black;"/>
<line x1="358" y1="972" x2="352" y2="975"
 style="stroke-width:1;stroke:Black;"/>
<line x1="358" y1="978" x2="352" y2="975"
 style="stroke-width:1;stroke:Black;"/>
<text style="font-family:Arial;font-size:12px;kerning:0;word-spacing:-1px;fill:Black;">
<tspan x="539" y="988">rdf:_1  </tspan>
<tspan x="539" y="1003">rdf:_2  DR</tspan>
<tspan x="539" y="1018">rdf:_3  DR</tspan>
<tspan x="539" y="1033">rdf:_5  DR</tspan>
<tspan x="539" y="1048">rdf:_4  DR</tspan>
</text>
</g>
<g id="2002689665"><path d="M743,963 L743,758 "
style="fill:none;stroke-width:1;stroke:Black;"/>
<line x1="740" y1="764" x2="743" y2="758"
 style="stroke-width:1;stroke:Black;"/>
<line x1="746" y1="764" x2="743" y2="758"
 style="stroke-width:1;stroke:Black;"/>
<text style="font-family:Arial;font-size:12px;kerning:0;word-spacing:-1px;fill:Black;">
<tspan x="703" y="959">rdf:_1  </tspan>
</text>
</g>
<g id="2002689675"><path d="M352,1070 L599,1070 "
style="fill:none;stroke-width:1;stroke:Black;"/>
<line x1="593" y1="1067" x2="599" y2="1070"
 style="stroke-width:1;stroke:Black;"/>
<line x1="593" y1="1073" x2="599" y2="1070"
 style="stroke-width:1;stroke:Black;"/>
<text style="font-family:Arial;font-size:12px;kerning:0;word-spacing:-1px;fill:Black;">
<tspan x="356" y="1068">:qmfSuperFormats  DR</tspan>
</text>
</g>
<g id="2002689680"><path d="M600,1277 L600,1357 "
style="fill:none;stroke-width:1;stroke:Black;"/>
<line x1="597" y1="1351" x2="600" y2="1357"
 style="stroke-width:1;stroke:Black;"/>
<line x1="603" y1="1351" x2="600" y2="1357"
 style="stroke-width:1;stroke:Black;"/>
<text style="font-family:Arial;font-size:12px;kerning:0;word-spacing:-1px;fill:Black;">
<tspan x="602" y="1292">n1:isEnrolled  DR</tspan>
</text>
</g>
<g id="2002689600"><path d="M903,1024 L1114,1024 1118,1022 1120,1018 1120,758 "
style="fill:none;stroke-width:1;stroke:Black;"/>
<line x1="1117" y1="764" x2="1120" y2="758"
 style="stroke-width:1;stroke:Black;"/>
<line x1="1123" y1="764" x2="1120" y2="758"
 style="stroke-width:1;stroke:Black;"/>
<text style="font-family:Arial;font-size:12px;kerning:0;word-spacing:-1px;fill:Black;">
<tspan x="907" y="1022">rdf:_1  </tspan>
</text>
</g>
<g id="2002689655"><path d="M741,509 L741,692 "
style="fill:none;stroke-width:1;stroke:Black;"/>
<line x1="738" y1="686" x2="741" y2="692"
 style="stroke-width:1;stroke:Black;"/>
<line x1="744" y1="686" x2="741" y2="692"
 style="stroke-width:1;stroke:Black;"/>
<text style="font-family:Arial;font-size:12px;kerning:0;word-spacing:-1px;fill:Black;">
<tspan x="743" y="524">rdf:_1  </tspan>
</text>
</g>
<g id="2002689670"><path d="M747,337 L747,427 "
style="fill:none;stroke-width:1;stroke:Black;"/>
<line x1="744" y1="421" x2="747" y2="427"
 style="stroke-width:1;stroke:Black;"/>
<line x1="750" y1="421" x2="747" y2="427"
 style="stroke-width:1;stroke:Black;"/>
<text style="font-family:Arial;font-size:12px;kerning:0;word-spacing:-1px;fill:Black;">
<tspan x="749" y="352">:qmvATables  DR</tspan>
<tspan x="749" y="367">:qmvColumns  DR</tspan>
</text>
</g>
<g id="2002689610"><path d="M746,178 L746,271 "
style="fill:none;stroke-width:1;stroke:Black;"/>
<line x1="743" y1="265" x2="746" y2="271"
 style="stroke-width:1;stroke:Black;"/>
<line x1="749" y1="265" x2="746" y2="271"
 style="stroke-width:1;stroke:Black;"/>
<text style="font-family:Arial;font-size:12px;kerning:0;word-spacing:-1px;fill:Black;">
<tspan x="748" y="193">:qmPredicateMap  DR</tspan>
<tspan x="748" y="208">:qmGraphMap  DR</tspan>
<tspan x="748" y="223">:qmObjectMap  DR</tspan>
<tspan x="748" y="238">:qmSubjectMap  DR</tspan>
</text>
</g>
<g id="2002689630"><path d="M1183,215 L1183,66 "
style="fill:none;stroke-width:1;stroke:Black;"/>
<line x1="1180" y1="72" x2="1183" y2="66"
 style="stroke-width:1;stroke:Black;"/>
<line x1="1186" y1="72" x2="1183" y2="66"
 style="stroke-width:1;stroke:Black;"/>
<text style="font-family:Arial;font-size:12px;kerning:0;word-spacing:-1px;fill:Black;">
<tspan x="1087" y="210">:qmvftConds  DR</tspan>
</text>
</g>
<g id="2002689595"><path d="M623,446 L352,446 "
style="fill:none;stroke-width:1;stroke:Black;"/>
<line x1="358" y1="443" x2="352" y2="446"
 style="stroke-width:1;stroke:Black;"/>
<line x1="358" y1="449" x2="352" y2="446"
 style="stroke-width:1;stroke:Black;"/>
<text style="font-family:Arial;font-size:12px;kerning:0;word-spacing:-1px;fill:Black;">
<tspan x="582" y="459">rdf:_1  </tspan>
</text>
</g>
<g id="2002689620"><path d="M927,484 L1118,484 1122,486 1124,490 1124,692 "
style="fill:none;stroke-width:1;stroke:Black;"/>
<line x1="1121" y1="686" x2="1124" y2="692"
 style="stroke-width:1;stroke:Black;"/>
<line x1="1127" y1="686" x2="1124" y2="692"
 style="stroke-width:1;stroke:Black;"/>
<text style="font-family:Arial;font-size:12px;kerning:0;word-spacing:-1px;fill:Black;">
<tspan x="931" y="482">rdf:_1  </tspan>
</text>
</g>
<g id="2002689650"><path d="M604,306 L352,306 "
style="fill:none;stroke-width:1;stroke:Black;"/>
<line x1="358" y1="303" x2="352" y2="306"
 style="stroke-width:1;stroke:Black;"/>
<line x1="358" y1="309" x2="352" y2="306"
 style="stroke-width:1;stroke:Black;"/>
<text style="font-family:Arial;font-size:12px;kerning:0;word-spacing:-1px;fill:Black;">
<tspan x="510" y="319">:qmvFormat  DR</tspan>
</text>
</g>
<g id="2002689615"><path d="M908,304 L1044,304 "
style="fill:none;stroke-width:1;stroke:Black;"/>
<line x1="1038" y1="301" x2="1044" y2="304"
 style="stroke-width:1;stroke:Black;"/>
<line x1="1038" y1="307" x2="1044" y2="304"
 style="stroke-width:1;stroke:Black;"/>
<text style="font-family:Arial;font-size:12px;kerning:0;word-spacing:-1px;fill:Black;">
<tspan x="912" y="286">:qmvFText  DR</tspan>
<tspan x="912" y="301">:qmvGeo  DR</tspan>
</text>
</g>
<g id="2002689690"><path d="M360,167 L629,167 "
style="fill:none;stroke-width:1;stroke:Black;"/>
<line x1="623" y1="164" x2="629" y2="167"
 style="stroke-width:1;stroke:Black;"/>
<line x1="623" y1="170" x2="629" y2="167"
 style="stroke-width:1;stroke:Black;"/>
<text style="font-family:Arial;font-size:12px;kerning:0;word-spacing:-1px;fill:Black;">
<tspan x="364" y="165">:qsDefaultMap  DR</tspan>
</text>
</g>
<g id="2002689685"><path d="M233,150 L233,85 "
style="fill:none;stroke-width:1;stroke:Black;"/>
<line x1="230" y1="91" x2="233" y2="85"
 style="stroke-width:1;stroke:Black;"/>
<line x1="236" y1="91" x2="233" y2="85"
 style="stroke-width:1;stroke:Black;"/>
<text style="font-family:Arial;font-size:12px;kerning:0;word-spacing:-1px;fill:Black;">
<tspan x="132" y="146">:qsUserMaps  DR</tspan>
</text>
</g>
<g id="2002689625"><path d="M352,715 L513,715 517,713 519,709 519,572 517,568 513,566 352,566 "
style="fill:none;stroke-width:1;stroke:Black;"/>
<line x1="358" y1="563" x2="352" y2="566"
 style="stroke-width:1;stroke:Black;"/>
<line x1="358" y1="569" x2="352" y2="566"
 style="stroke-width:1;stroke:Black;"/>
<text style="font-family:Arial;font-size:12px;kerning:0;word-spacing:-1px;fill:Black;">
<tspan x="356" y="698">:inheritFrom  DR</tspan>
<tspan x="356" y="713">:qmfSubFormatForRefs  DR</tspan>
</text>
</g>
<g id="2002689645"><path d="M604,1438 L604,1511 "
style="fill:none;stroke-width:1;stroke:Black;"/>
<line x1="601" y1="1505" x2="604" y2="1511"
 style="stroke-width:1;stroke:Black;"/>
<line x1="607" y1="1505" x2="604" y2="1511"
 style="stroke-width:1;stroke:Black;"/>
<text style="font-family:Arial;font-size:12px;kerning:0;word-spacing:-1px;fill:Black;">
<tspan x="606" y="1453">n1:inCourse  DR</tspan>
</text>
</g>
<g id="2002689605"><path d="M993,1249 L993,1211 995,1207 999,1205 1112,1205 1116,1207 1118,1211 1118,1249 "
style="fill:none;stroke-width:1;stroke:Black;"/>
<line x1="1115" y1="1243" x2="1118" y2="1249"
 style="stroke-width:1;stroke:Black;"/>
<line x1="1121" y1="1243" x2="1118" y2="1249"
 style="stroke-width:1;stroke:Black;"/>
<text style="font-family:Arial;font-size:12px;kerning:0;word-spacing:-1px;fill:Black;">
<tspan x="862" y="1245">owl:complementOf  DR</tspan>
</text>
</g>
<g id="2002689635"><path d="M1026,1380 L1026,1315 "
style="fill:none;stroke-width:1;stroke:Black;"/>
<line x1="1023" y1="1321" x2="1026" y2="1315"
 style="stroke-width:1;stroke:Black;"/>
<line x1="1029" y1="1321" x2="1026" y2="1315"
 style="stroke-width:1;stroke:Black;"/>
<text style="font-family:Arial;font-size:12px;kerning:0;word-spacing:-1px;fill:Black;">
<tspan x="942" y="1361">rdfs:domain  D</tspan>
<tspan x="942" y="1376">rdfs:range  D</tspan>
</text>
</g>
<g id="2002689695"><path d="M1027,1446 L1027,1526 "
style="fill:none;stroke-width:2;stroke:Fuchsia;"/>
<polygon points="1032,1456 1027,1446 1022,1456 "
style="fill:Silver;stroke-width:1;stroke:Black;"/>
<text style="font-family:Arial;font-size:12px;kerning:0;word-spacing:-1px;fill:Black;">
<tspan x="1029" y="1461"> </tspan>
</text>
</g>
<g id="2002689660"><path d="M1357,1258 L1357,1203 1359,1199 1363,1197 1490,1197 1494,1199 1496,1203 1496,1258 "
style="fill:none;stroke-width:1;stroke:Black;"/>
<line x1="1493" y1="1252" x2="1496" y2="1258"
 style="stroke-width:1;stroke:Black;"/>
<line x1="1499" y1="1252" x2="1496" y2="1258"
 style="stroke-width:1;stroke:Black;"/>
<text style="font-family:Arial;font-size:12px;kerning:0;word-spacing:-1px;fill:Black;">
<tspan x="1265" y="1239">sd:endpoint  DR</tspan>
<tspan x="1265" y="1254">sd:url  DR</tspan>
</text>
</g>
</svg>
