<?xml version="1.0" encoding="UTF-8" standalone="no"?>
<!DOCTYPE svg PUBLIC "-//W3C//DTD SVG 1.1//EN"
"http://www.w3.org/Graphics/SVG/1.1/DTD/svg11.dtd">
<svg version="1.1" xmlns="http://www.w3.org/2000/svg"
xmlns:xlink="http://www.w3.org/1999/xlink" xml:space="preserve"
 width="2648" height="1377" viewBox="0 0 2648 1377">
 onmousemove="movetip(evt)" onmouseup="endmove()">
<rect x="0" y="0" width="100%" height="100%" style="fill:White;"/>
<script type="application/ecmascript"> <![CDATA[
var dragtipid = null; var dragcase = false; function init(evt){
if (window.svgDocument==null) svgDocument = evt.target.ownerDocument;
}
function movetip(evt){if (dragtipid!=null){ dragcase = true;
var tip=svgDocument.getElementById(dragtipid);
tip.setAttributeNS(null,"x",evt.clientX-2);
tip.setAttributeNS(null,"y",evt.clientY-2);
}}
function endmove(){dragtipid = null;}
function startmove(evt,id){dragtipid = id; dragcase = false;
var tip=svgDocument.getElementById(dragtipid);
tip.setAttributeNS(null,"x",evt.clientX-2);
tip.setAttributeNS(null,"y",evt.clientY-2);
}
function Showtip(evt,id){ dragtipid = null;
var tip=svgDocument.getElementById(id);
var vis=tip.getAttributeNS(null,"visibility");
if (vis=="hidden"){
tip.setAttributeNS(null,"x",evt.clientX-2);
tip.setAttributeNS(null,"y",evt.clientY-2);
tip.setAttributeNS(null,"visibility","visible");
}}
function Hidetip(id){ dragtipid = null; if (dragcase==false){
var tip=svgDocument.getElementById(id);
tip.setAttributeNS(null,"visibility","hidden");
}}
]]></script>
<defs><linearGradient id="activ1" x1="0%" y1="0%" x2="100%" y2="0%">
<stop offset="0%" style="stop-color:#FFFF00;stop-opacity:1"/>
<stop offset="100%" style="stop-color:#FFFFF0;stop-opacity:1"/>
</linearGradient></defs>
<g id="2002683852"><polygon points="556,10 856,10 856,225 556,225 "
style="fill:#F4D03F; stroke-width:1;stroke:Black;"/>
<text style="font-family:Arial;font-size:12px;kerning:0;word-spacing:-1px;fill:Black;font-weight:bold;">
<tspan x="662" y="25">void:Dataset (1)</tspan>
</text>
<line x1="560" y1="28" x2="854" y2="28"
 style="stroke-width:1;stroke:Black;"/>
<text style="font-family:Arial;font-size:12px;kerning:0;word-spacing:-1px;fill:Black;">
<tspan x="560" y="40">dct:created (1) [1] D</tspan>
<tspan x="560" y="55">dct:issued (1) [1] D</tspan>
<tspan x="560" y="70">dct:license (1) [1] D -&gt; IRI</tspan>
<tspan x="560" y="85">rdf:type (1) [1]  -&gt; IRI</tspan>
<tspan x="560" y="100">void:classPartition (17) [*] D -&gt; IRI</tspan>
<tspan x="560" y="115">void:classes (1) [1] D</tspan>
<tspan x="560" y="130">void:distinctObjects (1) [1] D</tspan>
<tspan x="560" y="145">void:distinctSubjects (1) [1] D</tspan>
<tspan x="560" y="160">void:entities (1) [1] </tspan>
<tspan x="560" y="175">void:properties (1) [1] D</tspan>
<tspan x="560" y="190">void:propertyPartition (35) [*] D -&gt; IRI</tspan>
<tspan x="560" y="205">void:triples (1) [1] </tspan>
<tspan x="560" y="220">void:vocabulary (15) [*] D -&gt; IRI</tspan>
</text>
</g>
<g id="2002683709"><polygon points="142,46 442,46 442,111 142,111 "
style="fill:#F4D03F; stroke-width:1;stroke:Black;"/>
<text style="font-family:Arial;font-size:12px;kerning:0;word-spacing:-1px;fill:Black;font-weight:bold;">
<tspan x="249" y="61">void:Linkset (1)</tspan>
</text>
<line x1="146" y1="64" x2="440" y2="64"
 style="stroke-width:1;stroke:Black;"/>
<text style="font-family:Arial;font-size:12px;kerning:0;word-spacing:-1px;fill:Black;">
<tspan x="146" y="76">rdf:type (1) [1]  -&gt; IRI</tspan>
<tspan x="146" y="91">void:linkPredicate (1) [1] D -&gt; IRI</tspan>
<tspan x="146" y="106">void:triples (1) [1] </tspan>
</text>
</g>
<g id="2002683654"><polygon points="982,61 1282,61 1282,126 982,126 "
style="fill:#F4D03F; stroke-width:1;stroke:Black;"/>
<text style="font-family:Arial;font-size:12px;kerning:0;word-spacing:-1px;fill:Black;font-weight:bold;">
<tspan x="1055" y="76">void:DatasetDescription (1)</tspan>
</text>
<line x1="986" y1="79" x2="1280" y2="79"
 style="stroke-width:1;stroke:Black;"/>
<text style="font-family:Arial;font-size:12px;kerning:0;word-spacing:-1px;fill:Black;">
<tspan x="986" y="91">dct:creator (1) [1] D -&gt; IRI</tspan>
<tspan x="986" y="106">dct:title (1) [1] D</tspan>
<tspan x="986" y="121">rdf:type (1) [1]  -&gt; IRI</tspan>
</text>
</g>
<g id="2002683786"><polygon points="2338,39 2638,39 2638,195 2338,195 "
style="fill:#F4D03F; stroke-width:1;stroke:Black;"/>
<text style="font-family:Arial;font-size:12px;kerning:0;word-spacing:-1px;fill:Black;font-weight:bold;">
<tspan x="2448" y="54">owl:Class (46)</tspan>
</text>
<line x1="2342" y1="57" x2="2636" y2="57"
 style="stroke-width:1;stroke:Black;"/>
<text style="font-family:Arial;font-size:12px;kerning:0;word-spacing:-1px;fill:Black;">
<tspan x="2342" y="69">owl:sameAs (46) [1]  -&gt; IRI</tspan>
<tspan x="2342" y="84">rdf:type (46) [1]  -&gt; IRI</tspan>
<tspan x="2342" y="99">rdfs:comment (46) [1] </tspan>
<tspan x="2342" y="114">rdfs:isDefinedBy (46) [1]  -&gt; IRI</tspan>
<tspan x="2342" y="129">rdfs:label (46) [*] </tspan>
<tspan x="2342" y="144">regap:name (56) [*] </tspan>
<tspan x="2342" y="159">skos:definition (45) [1] </tspan>
<tspan x="2342" y="174">skos:scopeNote (35) [1] </tspan>
</text>
</g>
<g id="2002683841"><polygon points="1492,52 1792,52 1792,192 1492,192 "
style="fill:#F4D03F; stroke-width:1;stroke:Black;"/>
<text style="font-family:Arial;font-size:12px;kerning:0;word-spacing:-1px;fill:Black;font-weight:bold;">
<tspan x="1593" y="67">rdf:Property (449)</tspan>
</text>
<line x1="1496" y1="70" x2="1790" y2="70"
 style="stroke-width:1;stroke:Black;"/>
<text style="font-family:Arial;font-size:12px;kerning:0;word-spacing:-1px;fill:Black;">
<tspan x="1496" y="82">owl:sameAs (142) [1]  -&gt; IRI</tspan>
<tspan x="1496" y="97">rdf:type (449) [1]  -&gt; IRI</tspan>
<tspan x="1496" y="112">rdfs:comment (295) [1] </tspan>
<tspan x="1496" y="127">rdfs:isDefinedBy (142) [1]  -&gt; IRI</tspan>
<tspan x="1496" y="142">rdfs:label (1938) [*] </tspan>
<tspan x="1496" y="157">regap:name (142) [*] </tspan>
<tspan x="1496" y="172">skos:definition (71) [1] </tspan>
<tspan x="1496" y="187">skos:scopeNote (31) [1] </tspan>
</text>
</g>
<g id="2002683731"><polygon points="1910,147 2210,147 2210,197 1910,197 "
style="fill:#F4D03F; stroke-width:1;stroke:Black;"/>
<text style="font-family:Arial;font-size:12px;kerning:0;word-spacing:-1px;fill:Black;font-weight:bold;">
<tspan x="2011" y="162">skos:Concept (1)</tspan>
</text>
<line x1="1914" y1="165" x2="2208" y2="165"
 style="stroke-width:1;stroke:Black;"/>
<text style="font-family:Arial;font-size:12px;kerning:0;word-spacing:-1px;fill:Black;">
<tspan x="1914" y="177">rdf:type (1) [1]  -&gt; IRI</tspan>
<tspan x="1914" y="192">skos:prefLabel (1) [1] D</tspan>
</text>
</g>
<g id="2002683797"><polygon points="165,410 465,410 465,460 165,460 "
style="fill:#F4D03F; stroke-width:1;stroke:Black;"/>
<text style="font-family:Arial;font-size:12px;kerning:0;word-spacing:-1px;fill:Black;font-weight:bold;">
<tspan x="240" y="425">cidoc-rm:E35_Title (2.0e5)</tspan>
</text>
<line x1="169" y1="428" x2="463" y2="428"
 style="stroke-width:1;stroke:Black;"/>
<text style="font-family:Arial;font-size:12px;kerning:0;word-spacing:-1px;fill:Black;">
<tspan x="169" y="440">cidoc-rm:P190_has_symbolic_content (2.0e5) [1] </tspan>
<tspan x="169" y="455">rdf:type (2.0e5) [1]  -&gt; IRI</tspan>
</text>
</g>
<g id="2002683643"><polygon points="172,586 472,586 472,680 172,680 "
style="fill:#F4D03F; stroke-width:1;stroke:Black;"/>
<text style="font-family:Arial;font-size:12px;kerning:0;word-spacing:-1px;fill:Black;font-weight:bold;">
<tspan x="256" y="601">frbroo:F1_Work (1.0e5)</tspan>
</text>
<line x1="176" y1="604" x2="470" y2="604"
 style="stroke-width:1;stroke:Black;"/>
<text style="font-family:Arial;font-size:12px;kerning:0;word-spacing:-1px;fill:Black;">
<tspan x="176" y="616">owl:sameAs (3.4e4) [1]  -&gt; IRI</tspan>
<tspan x="176" y="631">rdf:type (1.0e5) [1]  -&gt; IRI</tspan>
<tspan x="176" y="646">rdfs:comment (1.0e5) [1] </tspan>
<tspan x="176" y="661">rdfs:label (1.0e5) [*] </tspan>
</text>
</g>
<g id="2002683687"><polygon points="687,412 987,412 987,492 687,492 "
style="fill:#F4D03F; stroke-width:1;stroke:Black;"/>
<text style="font-family:Arial;font-size:12px;kerning:0;word-spacing:-1px;fill:Black;font-weight:bold;">
<tspan x="765" y="427">cidoc-rm:E55_Type (389)</tspan>
</text>
<line x1="691" y1="430" x2="985" y2="430"
 style="stroke-width:1;stroke:Black;"/>
<text style="font-family:Arial;font-size:12px;kerning:0;word-spacing:-1px;fill:Black;">
<tspan x="691" y="442">owl:sameAs (227) [1]  -&gt; IRI</tspan>
<tspan x="691" y="457">rdf:type (389) [1]  -&gt; IRI</tspan>
<tspan x="691" y="472">rdfs:comment (5) [1] </tspan>
<tspan x="691" y="487">rdfs:label (399) [*] </tspan>
</text>
</g>
<g id="2002683764"><polygon points="364,839 840,839 840,975 364,975 "
style="fill:#F4D03F; stroke-width:1;stroke:Black;"/>
<text style="font-family:Arial;font-size:12px;kerning:0;word-spacing:-1px;fill:Black;font-weight:bold;">
<tspan x="510" y="854">cidoc-rm:E54_Dimension (4406)</tspan>
</text>
<line x1="368" y1="857" x2="838" y2="857"
 style="stroke-width:1;stroke:Black;"/>
<text style="font-family:Arial;font-size:12px;kerning:0;word-spacing:-1px;fill:Black;">
<tspan x="368" y="869">cidoc-rm:P180_has_currency (408) [1] D -&gt; IRI</tspan>
<tspan x="368" y="884">cidoc-rm:P181_has_amount (408) [1] D</tspan>
<tspan x="368" y="899">cidoc-rm:P90_has_value (3998) [1] D</tspan>
<tspan x="368" y="914">cidoc-rm:P91_has_unit (3998) [1] D -&gt; IRI</tspan>
<tspan x="368" y="929">rdf:type (4406) [1]  -&gt; IRI</tspan>
<tspan x="368" y="944">rdfs:label (408) [*] </tspan>
</text>
</g>
<g id="2002683698"><polygon points="517,1063 817,1063 817,1108 517,1108 "
style="fill:#F4D03F; stroke-width:1;stroke:Black;"/>
<text style="font-family:Arial;font-size:12px;kerning:0;word-spacing:-1px;fill:Black;font-weight:bold;">
<tspan x="535" y="1078">frbroo:F3_Manifestation_Product_Type (4.0e4)</tspan>
</text>
<line x1="521" y1="1081" x2="815" y2="1081"
 style="stroke-width:1;stroke:Black;"/>
<text style="font-family:Arial;font-size:12px;kerning:0;word-spacing:-1px;fill:Black;">
<tspan x="521" y="1093">rdf:type (4.0e4) [1]  -&gt; IRI</tspan>
</text>
</g>
<g id="2002683885"><polygon points="903,657 1252,657 1252,716 903,716 "
style="fill:#F4D03F; stroke-width:1;stroke:Black;"/>
<text style="font-family:Arial;font-size:12px;kerning:0;word-spacing:-1px;fill:Black;font-weight:bold;">
<tspan x="996" y="672">cidoc-rm:E7_Activity (1.0e5)</tspan>
</text>
<line x1="907" y1="675" x2="1250" y2="675"
 style="stroke-width:1;stroke:Black;"/>
<text style="font-family:Arial;font-size:12px;kerning:0;word-spacing:-1px;fill:Black;">
<tspan x="907" y="687">cidoc-rm:P4_has_time-span (7.5e4) [1]  -&gt; IRI</tspan>
<tspan x="907" y="702">rdf:type (1.0e5) [1]  -&gt; IRI</tspan>
</text>
</g>
<g id="2002683753"><polygon points="1016,1072 1316,1072 1316,1115 1016,1115 "
style="fill:#F4D03F; stroke-width:1;stroke:Black;"/>
<text style="font-family:Arial;font-size:12px;kerning:0;word-spacing:-1px;fill:Black;font-weight:bold;">
<tspan x="1044" y="1087">frbroo:F24_Publication_Expression (1.0e5)</tspan>
</text>
<line x1="1020" y1="1090" x2="1314" y2="1090"
 style="stroke-width:1;stroke:Black;"/>
<text style="font-family:Arial;font-size:12px;kerning:0;word-spacing:-1px;fill:Black;">
<tspan x="1020" y="1102">rdf:type (1.0e5) [1]  -&gt; IRI</tspan>
</text>
</g>
<g id="2002683808"><polygon points="1542,1322 1842,1322 1842,1367 1542,1367 "
style="fill:#F4D03F; stroke-width:1;stroke:Black;"/>
<text style="font-family:Arial;font-size:12px;kerning:0;word-spacing:-1px;fill:Black;font-weight:bold;">
<tspan x="1590" y="1337">frbroo:F21_Recording_Work (1.0e5)</tspan>
</text>
<line x1="1546" y1="1340" x2="1840" y2="1340"
 style="stroke-width:1;stroke:Black;"/>
<text style="font-family:Arial;font-size:12px;kerning:0;word-spacing:-1px;fill:Black;">
<tspan x="1546" y="1352">rdf:type (1.0e5) [1]  -&gt; IRI</tspan>
</text>
</g>
<g id="2002683720"><polygon points="1504,1059 1804,1059 1804,1104 1504,1104 "
style="fill:#F4D03F; stroke-width:1;stroke:Black;"/>
<text style="font-family:Arial;font-size:12px;kerning:0;word-spacing:-1px;fill:Black;font-weight:bold;">
<tspan x="1571" y="1074">frbroo:F26_Recording (1.0e5)</tspan>
</text>
<line x1="1508" y1="1077" x2="1802" y2="1077"
 style="stroke-width:1;stroke:Black;"/>
<text style="font-family:Arial;font-size:12px;kerning:0;word-spacing:-1px;fill:Black;">
<tspan x="1508" y="1089">rdf:type (1.0e5) [1]  -&gt; IRI</tspan>
</text>
</g>
<g id="2002683874"><polygon points="1125,267 1397,267 1397,377 1125,377 "
style="fill:#F4D03F; stroke-width:1;stroke:Black;"/>
<text style="font-family:Arial;font-size:12px;kerning:0;word-spacing:-1px;fill:Black;font-weight:bold;">
<tspan x="1177" y="282">cidoc-rm:E21_Person (1.0e5)</tspan>
</text>
<line x1="1129" y1="285" x2="1395" y2="285"
 style="stroke-width:1;stroke:Black;"/>
<text style="font-family:Arial;font-size:12px;kerning:0;word-spacing:-1px;fill:Black;">
<tspan x="1129" y="297">foaf:familyName (1.0e5) [1] D</tspan>
<tspan x="1129" y="312">foaf:givenName (1.0e5) [1] D</tspan>
<tspan x="1129" y="327">foaf:name (1.0e5) [1] D</tspan>
<tspan x="1129" y="342">owl:sameAs (2.2e4) [1]  -&gt; IRI</tspan>
<tspan x="1129" y="357">rdf:type (1.0e5) [1]  -&gt; IRI</tspan>
<tspan x="1129" y="372">rdfs:label (1.0e5) [*] </tspan>
</text>
</g>
<g id="2002683665"><polygon points="1826,536 2126,536 2126,601 1826,601 "
style="fill:#F4D03F; stroke-width:1;stroke:Black;"/>
<text style="font-family:Arial;font-size:12px;kerning:0;word-spacing:-1px;fill:Black;font-weight:bold;">
<tspan x="1890" y="551">cidoc-rm:E56_Language (183)</tspan>
</text>
<line x1="1830" y1="554" x2="2124" y2="554"
 style="stroke-width:1;stroke:Black;"/>
<text style="font-family:Arial;font-size:12px;kerning:0;word-spacing:-1px;fill:Black;">
<tspan x="1830" y="566">owl:sameAs (177) [1]  -&gt; IRI</tspan>
<tspan x="1830" y="581">rdf:type (183) [1]  -&gt; IRI</tspan>
<tspan x="1830" y="596">rdfs:label (183) [*] </tspan>
</text>
</g>
<g id="2002683676"><polygon points="1252,447 1552,447 1552,566 1252,566 "
style="fill:#F4D03F; stroke-width:1;stroke:Black;"/>
<text style="font-family:Arial;font-size:12px;kerning:0;word-spacing:-1px;fill:Black;font-weight:bold;">
<tspan x="1307" y="462">cidoc-rm:E41_Appellation (1.1e5)</tspan>
</text>
<line x1="1256" y1="465" x2="1550" y2="465"
 style="stroke-width:1;stroke:Black;"/>
<text style="font-family:Arial;font-size:12px;kerning:0;word-spacing:-1px;fill:Black;">
<tspan x="1256" y="477">cidoc-rm:P190_has_symbolic_content (1.1e5) [1] </tspan>
<tspan x="1256" y="492">rdf:type (1.1e5) [1]  -&gt; IRI</tspan>
<tspan x="1256" y="507">rdfs:label (1.0e5) [*] </tspan>
</text>
</g>
<g id="2002683742"><polygon points="1734,420 2034,420 2034,470 1734,470 "
style="fill:#F4D03F; stroke-width:1;stroke:Black;"/>
<text style="font-family:Arial;font-size:12px;kerning:0;word-spacing:-1px;fill:Black;font-weight:bold;">
<tspan x="1789" y="435">cidoc-rm:E40_Legal_Body (9477)</tspan>
</text>
<line x1="1738" y1="438" x2="2032" y2="438"
 style="stroke-width:1;stroke:Black;"/>
<text style="font-family:Arial;font-size:12px;kerning:0;word-spacing:-1px;fill:Black;">
<tspan x="1738" y="450">rdf:type (9477) [1]  -&gt; IRI</tspan>
<tspan x="1738" y="465">rdfs:label (9477) [*] </tspan>
</text>
</g>
<g id="2002683863"><polygon points="2207,360 2507,360 2507,463 2207,463 "
style="fill:#F4D03F; stroke-width:1;stroke:Black;"/>
<text style="font-family:Arial;font-size:12px;kerning:0;word-spacing:-1px;fill:Black;font-weight:bold;">
<tspan x="2270" y="375">cidoc-rm:E42_Identifier (1.1e5)</tspan>
</text>
<line x1="2211" y1="378" x2="2505" y2="378"
 style="stroke-width:1;stroke:Black;"/>
<text style="font-family:Arial;font-size:12px;kerning:0;word-spacing:-1px;fill:Black;">
<tspan x="2211" y="390">cidoc-rm:P190_has_symbolic_content (1.1e5) [1] </tspan>
<tspan x="2211" y="405">rdf:type (1.1e5) [1]  -&gt; IRI</tspan>
<tspan x="2211" y="420">rdfs:label (1.0e5) [*] </tspan>
</text>
</g>
<g id="2002683830"><polygon points="1006,1224 1306,1224 1306,1269 1006,1269 "
style="fill:#F4D03F; stroke-width:1;stroke:Black;"/>
<text style="font-family:Arial;font-size:12px;kerning:0;word-spacing:-1px;fill:Black;font-weight:bold;">
<tspan x="1054" y="1239">frbroo:F30_Publicatio_Event (1.0e5)</tspan>
</text>
<line x1="1010" y1="1242" x2="1304" y2="1242"
 style="stroke-width:1;stroke:Black;"/>
<text style="font-family:Arial;font-size:12px;kerning:0;word-spacing:-1px;fill:Black;">
<tspan x="1010" y="1254">rdf:type (1.0e5) [1]  -&gt; IRI</tspan>
</text>
</g>
<g id="2002683775"><polygon points="2128,802 2428,802 2428,867 2128,867 "
style="fill:#F4D03F; stroke-width:1;stroke:Black;"/>
<text style="font-family:Arial;font-size:12px;kerning:0;word-spacing:-1px;fill:Black;font-weight:bold;">
<tspan x="2204" y="817">cidoc-rm:E53_Place (379)</tspan>
</text>
<line x1="2132" y1="820" x2="2426" y2="820"
 style="stroke-width:1;stroke:Black;"/>
<text style="font-family:Arial;font-size:12px;kerning:0;word-spacing:-1px;fill:Black;">
<tspan x="2132" y="832">owl:sameAs (370) [1]  -&gt; IRI</tspan>
<tspan x="2132" y="847">rdf:type (379) [1]  -&gt; IRI</tspan>
<tspan x="2132" y="862">rdfs:label (379) [*] </tspan>
</text>
</g>
<g id="2002683819"><polygon points="2150,1003 2450,1003 2450,1109 2150,1109 "
style="fill:#F4D03F; stroke-width:1;stroke:Black;"/>
<text style="font-family:Arial;font-size:12px;kerning:0;word-spacing:-1px;fill:Black;font-weight:bold;">
<tspan x="2198" y="1018">frbroo:F29_Recording_Event (1.0e5)</tspan>
</text>
<line x1="2154" y1="1021" x2="2448" y2="1021"
 style="stroke-width:1;stroke:Black;"/>
<text style="font-family:Arial;font-size:12px;kerning:0;word-spacing:-1px;fill:Black;">
<tspan x="2154" y="1033">cidoc-rm:P4_has_time-span (1.5e4) [1]  -&gt; IRI</tspan>
<tspan x="2154" y="1048">cidoc-rm:P9_consists_of (4.6e5) [*] D -&gt; IRI</tspan>
<tspan x="2154" y="1063">rdf:type (1.0e5) [1]  -&gt; IRI</tspan>
</text>
</g>
<g id="2002683483"><path d="M2338,171 L2210,171 "
style="fill:none;stroke-width:1;stroke:Black;"/>
<line x1="2216" y1="168" x2="2210" y2="171"
 style="stroke-width:1;stroke:Black;"/>
<line x1="2216" y1="174" x2="2210" y2="171"
 style="stroke-width:1;stroke:Black;"/>
<text style="font-family:Arial;font-size:12px;kerning:0;word-spacing:-1px;fill:Black;">
<tspan x="2250" y="184">regap:status  R</tspan>
</text>
</g>
<g id="2002683513"><path d="M982,85 L856,85 "
style="fill:none;stroke-width:1;stroke:Black;"/>
<line x1="862" y1="82" x2="856" y2="85"
 style="stroke-width:1;stroke:Black;"/>
<line x1="862" y1="88" x2="856" y2="85"
 style="stroke-width:1;stroke:Black;"/>
<text style="font-family:Arial;font-size:12px;kerning:0;word-spacing:-1px;fill:Black;">
<tspan x="860" y="98">foaf:primaryTopic  DR</tspan>
</text>
</g>
<g id="2002683573"><path d="M1792,169 L1910,169 "
style="fill:none;stroke-width:1;stroke:Black;"/>
<line x1="1904" y1="166" x2="1910" y2="169"
 style="stroke-width:1;stroke:Black;"/>
<line x1="1904" y1="172" x2="1910" y2="169"
 style="stroke-width:1;stroke:Black;"/>
<text style="font-family:Arial;font-size:12px;kerning:0;word-spacing:-1px;fill:Black;">
<tspan x="1796" y="167">regap:status  R</tspan>
</text>
</g>
<g id="2002683583"><path d="M817,1087 L1016,1087 "
style="fill:none;stroke-width:1;stroke:Black;"/>
<line x1="1010" y1="1084" x2="1016" y2="1087"
 style="stroke-width:1;stroke:Black;"/>
<line x1="1010" y1="1090" x2="1016" y2="1087"
 style="stroke-width:1;stroke:Black;"/>
<text style="font-family:Arial;font-size:12px;kerning:0;word-spacing:-1px;fill:Black;">
<tspan x="821" y="1085">frbroo:CLR6_should_carry  DR</tspan>
</text>
</g>
<g id="2002683628"><path d="M465,450 L687,450 "
style="fill:none;stroke-width:1;stroke:Black;"/>
<line x1="681" y1="447" x2="687" y2="450"
 style="stroke-width:1;stroke:Black;"/>
<line x1="681" y1="453" x2="687" y2="450"
 style="stroke-width:1;stroke:Black;"/>
<text style="font-family:Arial;font-size:12px;kerning:0;word-spacing:-1px;fill:Black;">
<tspan x="469" y="448">cidoc-rm:P2_has_type  </tspan>
</text>
</g>
<g id="2002683638"><path d="M442,78 L556,78 "
style="fill:none;stroke-width:1;stroke:Black;"/>
<line x1="550" y1="75" x2="556" y2="78"
 style="stroke-width:1;stroke:Black;"/>
<line x1="550" y1="81" x2="556" y2="78"
 style="stroke-width:1;stroke:Black;"/>
<text style="font-family:Arial;font-size:12px;kerning:0;word-spacing:-1px;fill:Black;">
<tspan x="446" y="61">void:target  D</tspan>
<tspan x="446" y="76">void:subset  DR</tspan>
</text>
</g>
<g id="2002683578"><path d="M2338,45 L2236,45 2232,43 2230,39 2230,39 2232,35 2236,33 2344,33 2344,39 "
style="fill:none;stroke-width:1;stroke:Black;"/>
<line x1="2341" y1="33" x2="2344" y2="39"
 style="stroke-width:1;stroke:Black;"/>
<line x1="2347" y1="33" x2="2344" y2="39"
 style="stroke-width:1;stroke:Black;"/>
<text style="font-family:Arial;font-size:12px;kerning:0;word-spacing:-1px;fill:Black;">
<tspan x="2238" y="58">rdfs:subClassOf  </tspan>
</text>
</g>
<g id="2002683503"><path d="M1792,126 L2338,126 "
style="fill:none;stroke-width:1;stroke:Black;"/>
<line x1="2332" y1="123" x2="2338" y2="126"
 style="stroke-width:1;stroke:Black;"/>
<line x1="2332" y1="129" x2="2338" y2="126"
 style="stroke-width:1;stroke:Black;"/>
<text style="font-family:Arial;font-size:12px;kerning:0;word-spacing:-1px;fill:Black;">
<tspan x="1796" y="109">rdfs:range  D</tspan>
<tspan x="1796" y="124">rdfs:domain  D</tspan>
</text>
</g>
<g id="2002683543"><path d="M1316,1092 L1504,1092 "
style="fill:none;stroke-width:1;stroke:Black;"/>
<line x1="1498" y1="1089" x2="1504" y2="1092"
 style="stroke-width:1;stroke:Black;"/>
<line x1="1498" y1="1095" x2="1504" y2="1092"
 style="stroke-width:1;stroke:Black;"/>
<text style="font-family:Arial;font-size:12px;kerning:0;word-spacing:-1px;fill:Black;">
<tspan x="1320" y="1090">cidoc-rm:P165_incorporates  DR</tspan>
</text>
</g>
<g id="2002683608"><path d="M448,586 L448,460 "
style="fill:none;stroke-width:1;stroke:Black;"/>
<line x1="445" y1="466" x2="448" y2="460"
 style="stroke-width:1;stroke:Black;"/>
<line x1="451" y1="466" x2="448" y2="460"
 style="stroke-width:1;stroke:Black;"/>
<text style="font-family:Arial;font-size:12px;kerning:0;word-spacing:-1px;fill:Black;">
<tspan x="288" y="582">cidoc-rm:P102_has_title  DR</tspan>
</text>
</g>
<g id="2002683488"><path d="M172,659 L16,659 12,657 10,653 10,633 12,629 16,627 172,627 "
style="fill:none;stroke-width:1;stroke:Black;"/>
<line x1="166" y1="624" x2="172" y2="627"
 style="stroke-width:1;stroke:Black;"/>
<line x1="166" y1="630" x2="172" y2="627"
 style="stroke-width:1;stroke:Black;"/>
<text style="font-family:Arial;font-size:12px;kerning:0;word-spacing:-1px;fill:Black;">
<tspan x="19" y="672">frbroo:R2_is_derivative_of  </tspan>
</text>
</g>
<g id="2002683613"><path d="M421,680 L421,839 "
style="fill:none;stroke-width:1;stroke:Black;"/>
<line x1="418" y1="833" x2="421" y2="839"
 style="stroke-width:1;stroke:Black;"/>
<line x1="424" y1="833" x2="421" y2="839"
 style="stroke-width:1;stroke:Black;"/>
<text style="font-family:Arial;font-size:12px;kerning:0;word-spacing:-1px;fill:Black;">
<tspan x="423" y="695">cidoc-rm:P43_has_dimension  R</tspan>
</text>
</g>
<g id="2002683478"><path d="M802,839 L802,492 "
style="fill:none;stroke-width:1;stroke:Black;"/>
<line x1="799" y1="498" x2="802" y2="492"
 style="stroke-width:1;stroke:Black;"/>
<line x1="805" y1="498" x2="802" y2="492"
 style="stroke-width:1;stroke:Black;"/>
<text style="font-family:Arial;font-size:12px;kerning:0;word-spacing:-1px;fill:Black;">
<tspan x="671" y="835">cidoc-rm:P2_has_type  </tspan>
</text>
</g>
<g id="2002683468"><path d="M636,1063 L636,975 "
style="fill:none;stroke-width:1;stroke:Black;"/>
<line x1="633" y1="981" x2="636" y2="975"
 style="stroke-width:1;stroke:Black;"/>
<line x1="639" y1="981" x2="636" y2="975"
 style="stroke-width:1;stroke:Black;"/>
<text style="font-family:Arial;font-size:12px;kerning:0;word-spacing:-1px;fill:Black;">
<tspan x="452" y="1059">cidoc-rm:P43_has_dimension  R</tspan>
</text>
</g>
<g id="2002683618"><path d="M472,603 L709,603 713,601 715,597 715,492 "
style="fill:none;stroke-width:1;stroke:Black;"/>
<line x1="712" y1="498" x2="715" y2="492"
 style="stroke-width:1;stroke:Black;"/>
<line x1="718" y1="498" x2="715" y2="492"
 style="stroke-width:1;stroke:Black;"/>
<text style="font-family:Arial;font-size:12px;kerning:0;word-spacing:-1px;fill:Black;">
<tspan x="476" y="601">cidoc-rm:P2_has_type  </tspan>
</text>
</g>
<g id="2002683603"><path d="M1109,716 L1109,1072 "
style="fill:none;stroke-width:1;stroke:Black;"/>
<line x1="1106" y1="1066" x2="1109" y2="1072"
 style="stroke-width:1;stroke:Black;"/>
<line x1="1112" y1="1066" x2="1109" y2="1072"
 style="stroke-width:1;stroke:Black;"/>
<text style="font-family:Arial;font-size:12px;kerning:0;word-spacing:-1px;fill:Black;">
<tspan x="1111" y="731">cidoc-rm:P16_used_specific_object  </tspan>
<tspan x="1111" y="746">DR</tspan>
</text>
</g>
<g id="2002683633"><path d="M1542,1350 L198,1350 194,1348 192,1344 192,680 "
style="fill:none;stroke-width:1;stroke:Black;"/>
<line x1="189" y1="686" x2="192" y2="680"
 style="stroke-width:1;stroke:Black;"/>
<line x1="195" y1="686" x2="192" y2="680"
 style="stroke-width:1;stroke:Black;"/>
<text style="font-family:Arial;font-size:12px;kerning:0;word-spacing:-1px;fill:Black;">
<tspan x="1389" y="1363">frbroo:R2_is_derivative_of  </tspan>
</text>
</g>
<g id="2002683498"><path d="M1770,1059 L1770,588 1772,584 1776,582 1826,582 "
style="fill:none;stroke-width:1;stroke:Black;"/>
<line x1="1820" y1="579" x2="1826" y2="582"
 style="stroke-width:1;stroke:Black;"/>
<line x1="1820" y1="585" x2="1826" y2="582"
 style="stroke-width:1;stroke:Black;"/>
<text style="font-family:Arial;font-size:12px;kerning:0;word-spacing:-1px;fill:Black;">
<tspan x="1584" y="1055">cidoc-rm:P72_has_language  DR</tspan>
</text>
</g>
<g id="2002683553"><path d="M2150,1091 L1804,1091 "
style="fill:none;stroke-width:1;stroke:Black;"/>
<line x1="1810" y1="1088" x2="1804" y2="1091"
 style="stroke-width:1;stroke:Black;"/>
<line x1="1810" y1="1094" x2="1804" y2="1091"
 style="stroke-width:1;stroke:Black;"/>
<text style="font-family:Arial;font-size:12px;kerning:0;word-spacing:-1px;fill:Black;">
<tspan x="2016" y="1104">frbroo:R21_created  DR</tspan>
</text>
</g>
<g id="2002683533"><path d="M921,412 L921,238 923,234 927,232 2322,232 2326,234 2328,238 2328,360 "
style="fill:none;stroke-width:1;stroke:Black;"/>
<line x1="2325" y1="354" x2="2328" y2="360"
 style="stroke-width:1;stroke:Black;"/>
<line x1="2331" y1="354" x2="2328" y2="360"
 style="stroke-width:1;stroke:Black;"/>
<text style="font-family:Arial;font-size:12px;kerning:0;word-spacing:-1px;fill:Black;">
<tspan x="754" y="393">cidoc-rm:P48_has_preferred_</tspan>
<tspan x="754" y="408">identifier  </tspan>
</text>
</g>
<g id="2002683538"><path d="M687,418 L548,418 544,416 542,412 542,381 544,377 548,375 705,375 709,377 711,381 711,412 "
style="fill:none;stroke-width:1;stroke:Black;"/>
<line x1="708" y1="406" x2="711" y2="412"
 style="stroke-width:1;stroke:Black;"/>
<line x1="714" y1="406" x2="711" y2="412"
 style="stroke-width:1;stroke:Black;"/>
<text style="font-family:Arial;font-size:12px;kerning:0;word-spacing:-1px;fill:Black;">
<tspan x="554" y="431">cidoc-rm:P2_has_type  </tspan>
</text>
</g>
<g id="2002683588"><path d="M1492,58 L1369,58 1365,56 1363,52 1363,39 1365,35 1369,33 1525,33 1529,35 1531,39 1531,52 "
style="fill:none;stroke-width:1;stroke:Black;"/>
<line x1="1528" y1="46" x2="1531" y2="52"
 style="stroke-width:1;stroke:Black;"/>
<line x1="1534" y1="46" x2="1531" y2="52"
 style="stroke-width:1;stroke:Black;"/>
<text style="font-family:Arial;font-size:12px;kerning:0;word-spacing:-1px;fill:Black;">
<tspan x="1371" y="71">owl:inverseOf  DR</tspan>
<tspan x="1371" y="86">rdfs:subPropertyOf  D</tspan>
</text>
</g>
<g id="2002683593"><path d="M941,657 L941,492 "
style="fill:none;stroke-width:1;stroke:Black;"/>
<line x1="938" y1="498" x2="941" y2="492"
 style="stroke-width:1;stroke:Black;"/>
<line x1="944" y1="498" x2="941" y2="492"
 style="stroke-width:1;stroke:Black;"/>
<text style="font-family:Arial;font-size:12px;kerning:0;word-spacing:-1px;fill:Black;">
<tspan x="810" y="653">cidoc-rm:P2_has_type  </tspan>
</text>
</g>
<g id="2002683523"><path d="M987,477 L1252,477 "
style="fill:none;stroke-width:1;stroke:Black;"/>
<line x1="1246" y1="474" x2="1252" y2="477"
 style="stroke-width:1;stroke:Black;"/>
<line x1="1246" y1="480" x2="1252" y2="477"
 style="stroke-width:1;stroke:Black;"/>
<text style="font-family:Arial;font-size:12px;kerning:0;word-spacing:-1px;fill:Black;">
<tspan x="991" y="475">cidoc-rm:P1_is_identified_by  R</tspan>
</text>
</g>
<g id="2002683558"><path d="M1291,377 L1291,447 "
style="fill:none;stroke-width:1;stroke:Black;"/>
<line x1="1288" y1="441" x2="1291" y2="447"
 style="stroke-width:1;stroke:Black;"/>
<line x1="1294" y1="441" x2="1291" y2="447"
 style="stroke-width:1;stroke:Black;"/>
<text style="font-family:Arial;font-size:12px;kerning:0;word-spacing:-1px;fill:Black;">
<tspan x="1293" y="392">cidoc-rm:P1_is_identified_by  R</tspan>
</text>
</g>
<g id="2002683548"><path d="M2034,452 L2207,452 "
style="fill:none;stroke-width:1;stroke:Black;"/>
<line x1="2201" y1="449" x2="2207" y2="452"
 style="stroke-width:1;stroke:Black;"/>
<line x1="2201" y1="455" x2="2207" y2="452"
 style="stroke-width:1;stroke:Black;"/>
<text style="font-family:Arial;font-size:12px;kerning:0;word-spacing:-1px;fill:Black;">
<tspan x="2038" y="435">cidoc-rm:P48_has_preferred_</tspan>
<tspan x="2038" y="450">identifier  </tspan>
</text>
</g>
<g id="2002683473"><path d="M1826,554 L1552,554 "
style="fill:none;stroke-width:1;stroke:Black;"/>
<line x1="1558" y1="551" x2="1552" y2="554"
 style="stroke-width:1;stroke:Black;"/>
<line x1="1558" y1="557" x2="1552" y2="554"
 style="stroke-width:1;stroke:Black;"/>
<text style="font-family:Arial;font-size:12px;kerning:0;word-spacing:-1px;fill:Black;">
<tspan x="1648" y="567">cidoc-rm:P1_is_identified_by  R</tspan>
</text>
</g>
<g id="2002683518"><path d="M1734,453 L1552,453 "
style="fill:none;stroke-width:1;stroke:Black;"/>
<line x1="1558" y1="450" x2="1552" y2="453"
 style="stroke-width:1;stroke:Black;"/>
<line x1="1558" y1="456" x2="1552" y2="453"
 style="stroke-width:1;stroke:Black;"/>
<text style="font-family:Arial;font-size:12px;kerning:0;word-spacing:-1px;fill:Black;">
<tspan x="1556" y="466">cidoc-rm:P1_is_identified_by  R</tspan>
</text>
</g>
<g id="2002683508"><path d="M1397,370 L2207,370 "
style="fill:none;stroke-width:1;stroke:Black;"/>
<line x1="2201" y1="367" x2="2207" y2="370"
 style="stroke-width:1;stroke:Black;"/>
<line x1="2201" y1="373" x2="2207" y2="370"
 style="stroke-width:1;stroke:Black;"/>
<text style="font-family:Arial;font-size:12px;kerning:0;word-spacing:-1px;fill:Black;">
<tspan x="1401" y="353">cidoc-rm:P48_has_preferred_</tspan>
<tspan x="1401" y="368">identifier  </tspan>
</text>
</g>
<g id="2002683568"><path d="M2126,583 L2297,583 2301,581 2303,577 2303,463 "
style="fill:none;stroke-width:1;stroke:Black;"/>
<line x1="2300" y1="469" x2="2303" y2="463"
 style="stroke-width:1;stroke:Black;"/>
<line x1="2306" y1="469" x2="2303" y2="463"
 style="stroke-width:1;stroke:Black;"/>
<text style="font-family:Arial;font-size:12px;kerning:0;word-spacing:-1px;fill:Black;">
<tspan x="2130" y="566">cidoc-rm:P48_has_preferred_</tspan>
<tspan x="2130" y="581">identifier  </tspan>
</text>
</g>
<g id="2002683598"><path d="M1116,1224 L1116,1115 "
style="fill:none;stroke-width:1;stroke:Black;"/>
<line x1="1113" y1="1121" x2="1116" y2="1115"
 style="stroke-width:1;stroke:Black;"/>
<line x1="1119" y1="1121" x2="1116" y2="1115"
 style="stroke-width:1;stroke:Black;"/>
<text style="font-family:Arial;font-size:12px;kerning:0;word-spacing:-1px;fill:Black;">
<tspan x="984" y="1220">frbroo:R24_created  DR</tspan>
</text>
</g>
<g id="2002683563"><path d="M2372,802 L2372,463 "
style="fill:none;stroke-width:1;stroke:Black;"/>
<line x1="2369" y1="469" x2="2372" y2="463"
 style="stroke-width:1;stroke:Black;"/>
<line x1="2375" y1="469" x2="2372" y2="463"
 style="stroke-width:1;stroke:Black;"/>
<text style="font-family:Arial;font-size:12px;kerning:0;word-spacing:-1px;fill:Black;">
<tspan x="2205" y="783">cidoc-rm:P48_has_preferred_</tspan>
<tspan x="2205" y="798">identifier  </tspan>
</text>
</g>
<g id="2002683623"><path d="M2128,824 L1432,824 1428,822 1426,818 1426,566 "
style="fill:none;stroke-width:1;stroke:Black;"/>
<line x1="1423" y1="572" x2="1426" y2="566"
 style="stroke-width:1;stroke:Black;"/>
<line x1="1429" y1="572" x2="1426" y2="566"
 style="stroke-width:1;stroke:Black;"/>
<text style="font-family:Arial;font-size:12px;kerning:0;word-spacing:-1px;fill:Black;">
<tspan x="1950" y="837">cidoc-rm:P1_is_identified_by  R</tspan>
</text>
</g>
<g id="2002683528"><path d="M2374,1003 L2374,867 "
style="fill:none;stroke-width:1;stroke:Black;"/>
<line x1="2371" y1="873" x2="2374" y2="867"
 style="stroke-width:1;stroke:Black;"/>
<line x1="2377" y1="873" x2="2374" y2="867"
 style="stroke-width:1;stroke:Black;"/>
<text style="font-family:Arial;font-size:12px;kerning:0;word-spacing:-1px;fill:Black;">
<tspan x="2198" y="999">cidoc-rm:P7_took_place_at  DR</tspan>
</text>
</g>
<g id="2002683493"><path d="M2384,1109 L2384,1341 2382,1345 2378,1347 1842,1347 "
style="fill:none;stroke-width:1;stroke:Black;"/>
<line x1="1848" y1="1344" x2="1842" y2="1347"
 style="stroke-width:1;stroke:Black;"/>
<line x1="1848" y1="1350" x2="1842" y2="1347"
 style="stroke-width:1;stroke:Black;"/>
<text style="font-family:Arial;font-size:12px;kerning:0;word-spacing:-1px;fill:Black;">
<tspan x="2386" y="1124">frbroo:R22_created_a_realization_of  DR</tspan>
</text>
</g>
</svg>
