<?xml version="1.0" encoding="UTF-8" standalone="no"?>
<!DOCTYPE svg PUBLIC "-//W3C//DTD SVG 1.1//EN"
"http://www.w3.org/Graphics/SVG/1.1/DTD/svg11.dtd">
<svg version="1.1" xmlns="http://www.w3.org/2000/svg"
xmlns:xlink="http://www.w3.org/1999/xlink" xml:space="preserve"
 width="1019" height="556" viewBox="0 0 1019 556">
 onmousemove="movetip(evt)" onmouseup="endmove()">
<rect x="0" y="0" width="100%" height="100%" style="fill:White;"/>
<script type="application/ecmascript"> <![CDATA[
var dragtipid = null; var dragcase = false; function init(evt){
if (window.svgDocument==null) svgDocument = evt.target.ownerDocument;
}
function movetip(evt){if (dragtipid!=null){ dragcase = true;
var tip=svgDocument.getElementById(dragtipid);
tip.setAttributeNS(null,"x",evt.clientX-2);
tip.setAttributeNS(null,"y",evt.clientY-2);
}}
function endmove(){dragtipid = null;}
function startmove(evt,id){dragtipid = id; dragcase = false;
var tip=svgDocument.getElementById(dragtipid);
tip.setAttributeNS(null,"x",evt.clientX-2);
tip.setAttributeNS(null,"y",evt.clientY-2);
}
function Showtip(evt,id){ dragtipid = null;
var tip=svgDocument.getElementById(id);
var vis=tip.getAttributeNS(null,"visibility");
if (vis=="hidden"){
tip.setAttributeNS(null,"x",evt.clientX-2);
tip.setAttributeNS(null,"y",evt.clientY-2);
tip.setAttributeNS(null,"visibility","visible");
}}
function Hidetip(id){ dragtipid = null; if (dragcase==false){
var tip=svgDocument.getElementById(id);
tip.setAttributeNS(null,"visibility","hidden");
}}
]]></script>
<defs><linearGradient id="activ1" x1="0%" y1="0%" x2="100%" y2="0%">
<stop offset="0%" style="stop-color:#FFFF00;stop-opacity:1"/>
<stop offset="100%" style="stop-color:#FFFFF0;stop-opacity:1"/>
</linearGradient></defs>
<g id="2002688703"><polygon points="853,133 1002,133 1002,172 853,172 "
style="fill:#F4D03F; stroke-width:1;stroke:Black;"/>
<text style="font-family:Arial;font-size:7px;kerning:0;word-spacing:-1px;fill:Black;font-weight:bold;">
<tspan x="898" y="142">skos:Concept (1)</tspan>
</text>
<line x1="856" y1="144" x2="1001" y2="144"
 style="stroke-width:1;stroke:Black;"/>
<text style="font-family:Arial;font-size:7px;kerning:0;word-spacing:-1px;fill:Black;">
<tspan x="856" y="151">rdf:type (1) [*]  -&gt; IRI</tspan>
<tspan x="856" y="160">skos:inScheme (1) [1] D -&gt; IRI</tspan>
<tspan x="856" y="169">skos:prefLabel (2) [*] D</tspan>
</text>
</g>
<g id="2002688560"><polygon points="862,213 1010,213 1010,270 862,270 "
style="fill:#F4D03F; stroke-width:1;stroke:Black;"/>
<text style="font-family:Arial;font-size:7px;kerning:0;word-spacing:-1px;fill:Black;font-weight:bold;">
<tspan x="902" y="222">dcat:Distribution (1)</tspan>
</text>
<line x1="864" y1="224" x2="1009" y2="224"
 style="stroke-width:1;stroke:Black;"/>
<text style="font-family:Arial;font-size:7px;kerning:0;word-spacing:-1px;fill:Black;">
<tspan x="864" y="231">dcat:mediaType (1) [1] D</tspan>
<tspan x="864" y="240">dct:description (1) [1] D</tspan>
<tspan x="864" y="249">dct:license (1) [1] D -&gt; IRI</tspan>
<tspan x="864" y="258">dct:title (1) [1] </tspan>
<tspan x="864" y="267">rdf:type (1) [*]  -&gt; IRI</tspan>
</text>
</g>
<g id="2002688582"><polygon points="275,238 455,238 455,265 275,265 "
style="fill:#F4D03F; stroke-width:1;stroke:Black;"/>
<text style="font-family:Arial;font-size:7px;kerning:0;word-spacing:-1px;fill:Black;font-weight:bold;">
<tspan x="314" y="247">powla:DocumentLayer (1110)</tspan>
</text>
<line x1="277" y1="249" x2="454" y2="249"
 style="stroke-width:1;stroke:Black;"/>
<text style="font-family:Arial;font-size:7px;kerning:0;word-spacing:-1px;fill:Black;">
<tspan x="277" y="256">rdf:type (1110) [*]  -&gt; IRI</tspan>
</text>
</g>
<g id="2002688593"><polygon points="270,172 450,172 450,209 270,209 "
style="fill:#F4D03F; stroke-width:1;stroke:Black;"/>
<text style="font-family:Arial;font-size:7px;kerning:0;word-spacing:-1px;fill:Black;font-weight:bold;">
<tspan x="321" y="181">powla:Document (370)</tspan>
</text>
<line x1="272" y1="182" x2="449" y2="182"
 style="stroke-width:1;stroke:Black;"/>
<text style="font-family:Arial;font-size:7px;kerning:0;word-spacing:-1px;fill:Black;">
<tspan x="272" y="189">powla:documentID (370) [1] </tspan>
<tspan x="272" y="198">rdf:type (370) [*]  -&gt; IRI</tspan>
</text>
</g>
<g id="2002688571"><polygon points="559,127 739,127 739,308 559,308 "
style="fill:#F4D03F; stroke-width:1;stroke:Black;"/>
<polygon points="557,128 737,128 737,310 557,310 "
style="fill:#F4D03F; stroke-width:1;stroke:Black;"/>
<text style="font-family:Arial;font-size:7px;kerning:0;word-spacing:-1px;fill:Black;font-weight:bold;">
<tspan x="603" y="138">prov:Entity et al. G101 (1)</tspan>
</text>
<line x1="560" y1="139" x2="736" y2="139"
 style="stroke-width:1;stroke:Black;"/>
<text style="font-family:Arial;font-size:7px;kerning:0;word-spacing:-1px;fill:Black;">
<tspan x="560" y="146">dcat:contactPoint (1) [1] D -&gt; IRI</tspan>
<tspan x="560" y="155">dcat:keyword (2) [*] D</tspan>
<tspan x="560" y="164">dct:accrualPeriodicity (1) [1] D -&gt; IRI</tspan>
<tspan x="560" y="173">dct:issued (1) [1] D</tspan>
<tspan x="560" y="182">dct:language (1) [1] D -&gt; IRI</tspan>
<tspan x="560" y="191">dct:spatial (1) [1] D -&gt; IRI</tspan>
<tspan x="560" y="200">dct:temporal (1) [1] D -&gt; IRI</tspan>
<tspan x="560" y="209">dct:title (1) [1] </tspan>
<tspan x="560" y="218">owl:versionInfo (1) [1] D</tspan>
<tspan x="560" y="227">pavont:version (1) [1] D</tspan>
<tspan x="560" y="236">powla:documentID (1) [1] </tspan>
<tspan x="560" y="245">rdf:type (3) [*]  -&gt; IRI</tspan>
</text>
<text style="font-family:Arial;font-size:7px;kerning:0;word-spacing:-1px;fill:Black;font-weight:bold;">
<tspan x="560" y="254">dcat:Dataset (1)</tspan>
<tspan x="560" y="263">powla:Corpus (1)</tspan>
<tspan x="560" y="272">prov:Entity (1)</tspan>
</text>
</g>
<g id="2002688648"><polygon points="553,52 733,52 733,95 553,95 "
style="fill:#F4D03F; stroke-width:1;stroke:Black;"/>
<text style="font-family:Arial;font-size:7px;kerning:0;word-spacing:-1px;fill:Black;font-weight:bold;">
<tspan x="609" y="61">foaf:Organization (1)</tspan>
</text>
<line x1="556" y1="63" x2="732" y2="63"
 style="stroke-width:1;stroke:Black;"/>
<text style="font-family:Arial;font-size:7px;kerning:0;word-spacing:-1px;fill:Black;">
<tspan x="556" y="70">foaf:name (1) [1] D</tspan>
</text>
</g>
<g id="2002688604"><polygon points="259,78 439,78 439,145 259,145 "
style="fill:#F4D03F; stroke-width:1;stroke:Black;"/>
<text style="font-family:Arial;font-size:7px;kerning:0;word-spacing:-1px;fill:Black;font-weight:bold;">
<tspan x="325" y="87">foaf:Person (2)</tspan>
</text>
<line x1="262" y1="89" x2="438" y2="89"
 style="stroke-width:1;stroke:Black;"/>
<text style="font-family:Arial;font-size:7px;kerning:0;word-spacing:-1px;fill:Black;">
<tspan x="262" y="96">foaf:givenName (2) [1] D</tspan>
<tspan x="262" y="105">foaf:mbox (2) [1] D -&gt; IRI</tspan>
</text>
</g>
<g id="2002688681"><polygon points="586,412 766,412 766,479 586,479 "
style="fill:#F4D03F; stroke-width:1;stroke:Black;"/>
<polygon points="584,413 764,413 764,481 584,481 "
style="fill:#F4D03F; stroke-width:1;stroke:Black;"/>
<text style="font-family:Arial;font-size:7px;kerning:0;word-spacing:-1px;fill:Black;font-weight:bold;">
<tspan x="603" y="423">nerdont:Organization et al. G103 (~1.4e4)</tspan>
</text>
<text style="font-family:Arial;font-size:7px;kerning:0;word-spacing:-1px;fill:Black;font-weight:bold;">
<tspan x="587" y="431">nerdont:Location (2276)</tspan>
<tspan x="587" y="440">nerdont:Organization (6209)</tspan>
<tspan x="587" y="449">nerdont:Person (914)</tspan>
<tspan x="587" y="458">nerdont:Time (4643)</tspan>
</text>
</g>
<g id="2002688637"><polygon points="258,22 438,22 438,49 258,49 "
style="fill:#F4D03F; stroke-width:1;stroke:Black;"/>
<text style="font-family:Arial;font-size:7px;kerning:0;word-spacing:-1px;fill:Black;font-weight:bold;">
<tspan x="324" y="31">prov:Agent (3)</tspan>
</text>
<line x1="260" y1="33" x2="437" y2="33"
 style="stroke-width:1;stroke:Black;"/>
<text style="font-family:Arial;font-size:7px;kerning:0;word-spacing:-1px;fill:Black;">
<tspan x="260" y="40">rdf:type (6) [*]  -&gt; IRI</tspan>
</text>
</g>
<g id="2002688626"><polygon points="278,325 458,325 458,373 278,373 "
style="fill:#F4D03F; stroke-width:1;stroke:Black;"/>
<text style="font-family:Arial;font-size:7px;kerning:0;word-spacing:-1px;fill:Black;font-weight:bold;">
<tspan x="335" y="334">powla:Node (2.9e5)</tspan>
</text>
<line x1="281" y1="335" x2="457" y2="335"
 style="stroke-width:1;stroke:Black;"/>
<text style="font-family:Arial;font-size:7px;kerning:0;word-spacing:-1px;fill:Black;">
<tspan x="281" y="342">geonames:Feature (2744) [1] D</tspan>
<tspan x="281" y="351">nif-core:anchorOf (2.8e5) [1] D</tspan>
<tspan x="281" y="360">powla:string (2.8e5) [1] D</tspan>
<tspan x="281" y="369">rdf:type (6.0e5) [*]  -&gt; IRI</tspan>
</text>
</g>
<g id="2002688615"><polygon points="835,400 1015,400 1015,430 835,430 "
style="fill:#F4D03F; stroke-width:1;stroke:Black;"/>
<polygon points="833,401 1013,401 1013,431 833,431 "
style="fill:#F4D03F; stroke-width:1;stroke:Black;"/>
<text style="font-family:Arial;font-size:7px;kerning:0;word-spacing:-1px;fill:Black;font-weight:bold;">
<tspan x="840" y="411">nerdont:Thing or ont:LegalResource G102 (3387)</tspan>
</text>
<text style="font-family:Arial;font-size:7px;kerning:0;word-spacing:-1px;fill:Black;font-weight:bold;">
<tspan x="836" y="419">nerdont:Thing (3387)</tspan>
<tspan x="836" y="428">ont:LegalResource (3387)</tspan>
</text>
</g>
<g id="2002688659"><polygon points="574,335 754,335 754,365 574,365 "
style="fill:#F4D03F; stroke-width:1;stroke:Black;"/>
<text style="font-family:Arial;font-size:7px;kerning:0;word-spacing:-1px;fill:Black;font-weight:bold;">
<tspan x="625" y="344">nif-core:Phrase (1.7e4)</tspan>
</text>
<line x1="577" y1="346" x2="753" y2="346"
 style="stroke-width:1;stroke:Black;"/>
<text style="font-family:Arial;font-size:7px;kerning:0;word-spacing:-1px;fill:Black;">
<tspan x="577" y="353">nif-core:beginIndex (1.7e4) [1] D</tspan>
<tspan x="577" y="362">nif-core:endIndex (1.7e4) [1] D</tspan>
</text>
</g>
<g id="2002688670"><polygon points="374,424 554,424 554,499 374,499 "
style="fill:#F4D03F; stroke-width:1;stroke:Black;"/>
<text style="font-family:Arial;font-size:7px;kerning:0;word-spacing:-1px;fill:Black;font-weight:bold;">
<tspan x="422" y="433">nif-core:Sentence (8284)</tspan>
</text>
</g>
<g id="2002688692"><polygon points="104,418 284,418 284,520 104,520 "
style="fill:#F4D03F; stroke-width:1;stroke:Black;"/>
<text style="font-family:Arial;font-size:7px;kerning:0;word-spacing:-1px;fill:Black;font-weight:bold;">
<tspan x="158" y="427">nif-core:Word (2.7e5)</tspan>
</text>
<line x1="107" y1="428" x2="283" y2="428"
 style="stroke-width:1;stroke:Black;"/>
<text style="font-family:Arial;font-size:7px;kerning:0;word-spacing:-1px;fill:Black;">
<tspan x="107" y="435">ext-format:NE (2.6e5) [1] D</tspan>
<tspan x="107" y="444">format.html:DEPREL (2.7e5) [1] D</tspan>
<tspan x="107" y="453">format.html:FEATS (2.2e5) [1] D</tspan>
<tspan x="107" y="462">format.html:FORM (2.7e5) [1] D</tspan>
<tspan x="107" y="471">format.html:HEAD (2.7e5) [1] D</tspan>
<tspan x="107" y="480">format.html:ID (2.7e5) [1] D</tspan>
<tspan x="107" y="489">format.html:LEMMA (2.7e5) [1] D</tspan>
<tspan x="107" y="498">format.html:MISC (4.8e4) [1] D</tspan>
<tspan x="107" y="507">format.html:UPOS (2.7e5) [1] D</tspan>
<tspan x="107" y="516">format.html:XPOS (2.7e5) [1] D</tspan>
</text>
</g>
<g id="2002688483"><path d="M374,439 L284,439 "
style="fill:none;stroke-width:1;stroke:Black;"/>
<line x1="288" y1="437" x2="284" y2="439"
 style="stroke-width:1;stroke:Black;"/>
<line x1="288" y1="441" x2="284" y2="439"
 style="stroke-width:1;stroke:Black;"/>
<text style="font-family:Arial;font-size:7px;kerning:0;word-spacing:-1px;fill:Black;">
<tspan x="302" y="447">nif-core:word  D</tspan>
<tspan x="302" y="456">nif-core:lastWord  DR</tspan>
<tspan x="302" y="465">nif-core:firstWord  DR</tspan>
</text>
</g>
<g id="2002688543"><path d="M284,485 L374,485 "
style="fill:none;stroke-width:1;stroke:Black;"/>
<line x1="371" y1="484" x2="374" y2="485"
 style="stroke-width:1;stroke:Black;"/>
<line x1="371" y1="487" x2="374" y2="485"
 style="stroke-width:1;stroke:Black;"/>
<text style="font-family:Arial;font-size:7px;kerning:0;word-spacing:-1px;fill:Black;">
<tspan x="287" y="475">nif-core:sentence  DR</tspan>
<tspan x="287" y="484">powla:hasParent  DR</tspan>
</text>
</g>
<g id="2002688478"><path d="M412,499 L412,531 413,533 415,535 514,535 517,533 518,531 518,499 "
style="fill:none;stroke-width:1;stroke:Black;"/>
<line x1="516" y1="503" x2="518" y2="499"
 style="stroke-width:1;stroke:Black;"/>
<line x1="520" y1="503" x2="518" y2="499"
 style="stroke-width:1;stroke:Black;"/>
<text style="font-family:Arial;font-size:7px;kerning:0;word-spacing:-1px;fill:Black;">
<tspan x="413" y="508">nif-core:previousSentence  DR</tspan>
<tspan x="413" y="517">nif-core:nextSentence  DR</tspan>
</text>
</g>
<g id="2002688498"><path d="M148,520 L148,545 149,548 152,549 259,549 261,548 262,545 262,520 "
style="fill:none;stroke-width:1;stroke:Black;"/>
<line x1="260" y1="523" x2="262" y2="520"
 style="stroke-width:1;stroke:Black;"/>
<line x1="264" y1="523" x2="262" y2="520"
 style="stroke-width:1;stroke:Black;"/>
<text style="font-family:Arial;font-size:7px;kerning:0;word-spacing:-1px;fill:Black;">
<tspan x="150" y="528">nif-core:previousWord  DR</tspan>
<tspan x="150" y="537">nif-core:nextWord  DR</tspan>
</text>
</g>
<g id="2002688550"><path d="M430,373 L430,424 "
style="fill:none;stroke-width:1;stroke:Fuchsia;"/>
<polygon points="433,379 430,373 427,379 "
style="fill:Silver;stroke-width:1;stroke:Black;"/>
<text style="font-family:Arial;font-size:7px;kerning:0;word-spacing:-1px;fill:Black;">
<tspan x="431" y="381"> </tspan>
</text>
</g>
<g id="2002688552"><path d="M657,365 L657,413 "
style="fill:none;stroke-width:1;stroke:Fuchsia;"/>
<polygon points="660,371 657,365 654,371 "
style="fill:Silver;stroke-width:1;stroke:Black;"/>
<text style="font-family:Arial;font-size:7px;kerning:0;word-spacing:-1px;fill:Black;">
<tspan x="659" y="374"> </tspan>
</text>
</g>
<g id="2002688518"><path d="M410,325 L410,301 411,298 413,297 437,297 440,298 441,301 441,325 "
style="fill:none;stroke-width:1;stroke:Black;"/>
<line x1="439" y1="321" x2="441" y2="325"
 style="stroke-width:1;stroke:Black;"/>
<line x1="443" y1="321" x2="441" y2="325"
 style="stroke-width:1;stroke:Black;"/>
<text style="font-family:Arial;font-size:7px;kerning:0;word-spacing:-1px;fill:Black;">
<tspan x="345" y="313">powla:next  DR</tspan>
<tspan x="345" y="322">powla:previous  DR</tspan>
</text>
</g>
<g id="2002688513"><path d="M332,238 L332,209 "
style="fill:none;stroke-width:1;stroke:Black;"/>
<line x1="331" y1="213" x2="332" y2="209"
 style="stroke-width:1;stroke:Black;"/>
<line x1="334" y1="213" x2="332" y2="209"
 style="stroke-width:1;stroke:Black;"/>
<text style="font-family:Arial;font-size:7px;kerning:0;word-spacing:-1px;fill:Black;">
<tspan x="249" y="236">powla:hasDocument  DR</tspan>
</text>
</g>
<g id="2002688533"><path d="M737,246 L862,246 "
style="fill:none;stroke-width:1;stroke:Black;"/>
<line x1="858" y1="244" x2="862" y2="246"
 style="stroke-width:1;stroke:Black;"/>
<line x1="858" y1="248" x2="862" y2="246"
 style="stroke-width:1;stroke:Black;"/>
<text style="font-family:Arial;font-size:7px;kerning:0;word-spacing:-1px;fill:Black;">
<tspan x="740" y="245">dcat:distribution  DR</tspan>
</text>
</g>
<g id="2002688523"><path d="M737,156 L853,156 "
style="fill:none;stroke-width:1;stroke:Black;"/>
<line x1="850" y1="154" x2="853" y2="156"
 style="stroke-width:1;stroke:Black;"/>
<line x1="850" y1="158" x2="853" y2="156"
 style="stroke-width:1;stroke:Black;"/>
<text style="font-family:Arial;font-size:7px;kerning:0;word-spacing:-1px;fill:Black;">
<tspan x="740" y="155">dcat:theme  DR</tspan>
</text>
</g>
<g id="2002688488"><path d="M676,128 L676,95 "
style="fill:none;stroke-width:1;stroke:Black;"/>
<line x1="674" y1="99" x2="676" y2="95"
 style="stroke-width:1;stroke:Black;"/>
<line x1="677" y1="99" x2="676" y2="95"
 style="stroke-width:1;stroke:Black;"/>
<text style="font-family:Arial;font-size:7px;kerning:0;word-spacing:-1px;fill:Black;">
<tspan x="618" y="126">dct:publisher  DR</tspan>
</text>
</g>
<g id="2002688538"><path d="M557,179 L450,179 "
style="fill:none;stroke-width:1;stroke:Black;"/>
<line x1="454" y1="177" x2="450" y2="179"
 style="stroke-width:1;stroke:Black;"/>
<line x1="454" y1="181" x2="450" y2="179"
 style="stroke-width:1;stroke:Black;"/>
<text style="font-family:Arial;font-size:7px;kerning:0;word-spacing:-1px;fill:Black;">
<tspan x="459" y="186">powla:hasSubDocument  DR</tspan>
</text>
</g>
<g id="2002688493"><path d="M450,198 L557,198 "
style="fill:none;stroke-width:1;stroke:Black;"/>
<line x1="554" y1="196" x2="557" y2="198"
 style="stroke-width:1;stroke:Black;"/>
<line x1="554" y1="200" x2="557" y2="198"
 style="stroke-width:1;stroke:Black;"/>
<text style="font-family:Arial;font-size:7px;kerning:0;word-spacing:-1px;fill:Black;">
<tspan x="453" y="197">powla:hasSuperDocument  DR</tspan>
</text>
</g>
<g id="2002688554"><path d="M350,49 L350,78 "
style="fill:none;stroke-width:1;stroke:Fuchsia;"/>
<polygon points="353,55 350,49 347,55 "
style="fill:Silver;stroke-width:1;stroke:Black;"/>
<text style="font-family:Arial;font-size:7px;kerning:0;word-spacing:-1px;fill:Black;">
<tspan x="351" y="58"> </tspan>
</text>
</g>
<g id="2002688503"><path d="M557,142 L439,142 "
style="fill:none;stroke-width:1;stroke:Black;"/>
<line x1="443" y1="140" x2="439" y2="142"
 style="stroke-width:1;stroke:Black;"/>
<line x1="443" y1="143" x2="439" y2="142"
 style="stroke-width:1;stroke:Black;"/>
<text style="font-family:Arial;font-size:7px;kerning:0;word-spacing:-1px;fill:Black;">
<tspan x="507" y="149">dct:creator  DR</tspan>
</text>
</g>
<g id="2002688528"><path d="M439,88 L553,88 "
style="fill:none;stroke-width:1;stroke:Black;"/>
<line x1="550" y1="86" x2="553" y2="88"
 style="stroke-width:1;stroke:Black;"/>
<line x1="550" y1="90" x2="553" y2="88"
 style="stroke-width:1;stroke:Black;"/>
<text style="font-family:Arial;font-size:7px;kerning:0;word-spacing:-1px;fill:Black;">
<tspan x="442" y="87">prov:actedOnBehalfOf  DR</tspan>
</text>
</g>
<g id="2002688548"><path d="M458,348 L574,348 "
style="fill:none;stroke-width:1;stroke:Fuchsia;"/>
<polygon points="464,351 458,348 464,345 "
style="fill:Silver;stroke-width:1;stroke:Black;"/>
<text style="font-family:Arial;font-size:7px;kerning:0;word-spacing:-1px;fill:Black;">
<tspan x="461" y="347"> </tspan>
</text>
</g>
<g id="2002688508"><path d="M340,325 L340,265 "
style="fill:none;stroke-width:1;stroke:Black;"/>
<line x1="338" y1="269" x2="340" y2="265"
 style="stroke-width:1;stroke:Black;"/>
<line x1="341" y1="269" x2="340" y2="265"
 style="stroke-width:1;stroke:Black;"/>
<text style="font-family:Arial;font-size:7px;kerning:0;word-spacing:-1px;fill:Black;">
<tspan x="272" y="322">powla:hasLayer  DR</tspan>
</text>
</g>
<g id="2002688556"><path d="M278,358 L244,358 241,359 240,362 240,418 "
style="fill:none;stroke-width:1;stroke:Fuchsia;"/>
<polygon points="272,361 278,358 272,355 "
style="fill:Silver;stroke-width:1;stroke:Black;"/>
<text style="font-family:Arial;font-size:7px;kerning:0;word-spacing:-1px;fill:Black;">
<tspan x="270" y="366"> </tspan>
</text>
</g>
<g id="2002688558"><path d="M438,32 L580,32 583,34 584,36 584,52 "
style="fill:none;stroke-width:1;stroke:Fuchsia;"/>
<polygon points="444,35 438,32 444,29 "
style="fill:Silver;stroke-width:1;stroke:Black;"/>
<text style="font-family:Arial;font-size:7px;kerning:0;word-spacing:-1px;fill:Black;">
<tspan x="441" y="31"> </tspan>
</text>
</g>
</svg>
