<?xml version="1.0" encoding="UTF-8" standalone="no"?>
<!DOCTYPE svg PUBLIC "-//W3C//DTD SVG 1.1//EN"
"http://www.w3.org/Graphics/SVG/1.1/DTD/svg11.dtd">
<svg version="1.1" xmlns="http://www.w3.org/2000/svg"
xmlns:xlink="http://www.w3.org/1999/xlink" xml:space="preserve"
 width="904" height="449" viewBox="0 0 904 449">
 onmousemove="movetip(evt)" onmouseup="endmove()">
<rect x="0" y="0" width="100%" height="100%" style="fill:White;"/>
<script type="application/ecmascript"> <![CDATA[
var dragtipid = null; var dragcase = false; function init(evt){
if (window.svgDocument==null) svgDocument = evt.target.ownerDocument;
}
function movetip(evt){if (dragtipid!=null){ dragcase = true;
var tip=svgDocument.getElementById(dragtipid);
tip.setAttributeNS(null,"x",evt.clientX-2);
tip.setAttributeNS(null,"y",evt.clientY-2);
}}
function endmove(){dragtipid = null;}
function startmove(evt,id){dragtipid = id; dragcase = false;
var tip=svgDocument.getElementById(dragtipid);
tip.setAttributeNS(null,"x",evt.clientX-2);
tip.setAttributeNS(null,"y",evt.clientY-2);
}
function Showtip(evt,id){ dragtipid = null;
var tip=svgDocument.getElementById(id);
var vis=tip.getAttributeNS(null,"visibility");
if (vis=="hidden"){
tip.setAttributeNS(null,"x",evt.clientX-2);
tip.setAttributeNS(null,"y",evt.clientY-2);
tip.setAttributeNS(null,"visibility","visible");
}}
function Hidetip(id){ dragtipid = null; if (dragcase==false){
var tip=svgDocument.getElementById(id);
tip.setAttributeNS(null,"visibility","hidden");
}}
]]></script>
<defs><linearGradient id="activ1" x1="0%" y1="0%" x2="100%" y2="0%">
<stop offset="0%" style="stop-color:#FFFF00;stop-opacity:1"/>
<stop offset="100%" style="stop-color:#FFFFF0;stop-opacity:1"/>
</linearGradient></defs>
<g id="2002685669"><polygon points="718,76 898,76 898,241 718,241 "
style="fill:#F4D03F; stroke-width:1;stroke:Black;"/>
<text style="font-family:Arial;font-size:7px;kerning:0;word-spacing:-1px;fill:Black;font-weight:bold;">
<tspan x="776" y="85">edm:Agent (1.5e5)</tspan>
</text>
<line x1="720" y1="86" x2="896" y2="86"
 style="stroke-width:1;stroke:Black;"/>
<text style="font-family:Arial;font-size:7px;kerning:0;word-spacing:-1px;fill:Black;">
<tspan x="720" y="93">edm:begin (585) [*] </tspan>
<tspan x="720" y="102">edm:end (580) [*] </tspan>
<tspan x="720" y="111">rdf:type (1.5e5) [1]  -&gt; IRI</tspan>
<tspan x="720" y="120">rdvocab:biographicalInformation (683) [*] </tspan>
<tspan x="720" y="129">rdvocab:dateOfBirth (498) [*] </tspan>
<tspan x="720" y="138">rdvocab:dateOfDeath (524) [*] </tspan>
<tspan x="720" y="147">rdvocab:dateOfEstablishment (48) [1] </tspan>
<tspan x="720" y="156">rdvocab:dateOfTermination (30) [1] </tspan>
<tspan x="720" y="165">rdvocab:gender (691) [*] </tspan>
<tspan x="720" y="174">rdvocab:placeOfBirth (685) [*] </tspan>
<tspan x="720" y="183">rdvocab:placeOfDeath (597) [*] </tspan>
<tspan x="720" y="192">rdvocab:professionOrOccupation (3398) [*] </tspan>
<tspan x="720" y="201">skos:altLabel (4581) [*] </tspan>
<tspan x="720" y="210">skos:note (3710) [*] </tspan>
<tspan x="720" y="219">skos:prefLabel (1.5e5) [*] </tspan>
<tspan x="720" y="228">vocab:oaiSourceIdentifier (1.2e6) [*] </tspan>
<tspan x="720" y="237">vocab:oaiSourceRepository (1.5e5) [1]  -&gt; IRI</tspan>
</text>
</g>
<g id="2002685680"><polygon points="137,256 317,256 317,283 137,283 "
style="fill:#F4D03F; stroke-width:1;stroke:Black;"/>
<text style="font-family:Arial;font-size:7px;kerning:0;word-spacing:-1px;fill:Black;font-weight:bold;">
<tspan x="202" y="265">cc:License (4)</tspan>
</text>
</g>
<g id="2002685691"><polygon points="52,302 232,302 232,386 52,386 "
style="fill:#F4D03F; stroke-width:1;stroke:Black;"/>
<text style="font-family:Arial;font-size:7px;kerning:0;word-spacing:-1px;fill:Black;font-weight:bold;">
<tspan x="102" y="311">ore:Aggregation (5.5e5)</tspan>
</text>
<line x1="55" y1="313" x2="231" y2="313"
 style="stroke-width:1;stroke:Black;"/>
<text style="font-family:Arial;font-size:7px;kerning:0;word-spacing:-1px;fill:Black;">
<tspan x="55" y="320">edm:dataProvider (5.5e5) [1] </tspan>
<tspan x="55" y="329">edm:isShownAt (5.5e5) [*]  -&gt; IRI</tspan>
<tspan x="55" y="338">edm:isShownBy (3.4e5) [*]  -&gt; IRI</tspan>
<tspan x="55" y="347">edm:object (3.4e5) [*]  -&gt; IRI</tspan>
<tspan x="55" y="356">edm:provider (5.5e5) [1] </tspan>
<tspan x="55" y="365">rdf:type (5.5e5) [1]  -&gt; IRI</tspan>
<tspan x="55" y="374">vocab:oaiSourceIdentifier (5.5e5) [*] </tspan>
<tspan x="55" y="383">vocab:oaiSourceRepository (5.5e5) [1]  -&gt; IRI</tspan>
</text>
</g>
<g id="2002685702"><polygon points="443,24 623,24 623,108 443,108 "
style="fill:#F4D03F; stroke-width:1;stroke:Black;"/>
<text style="font-family:Arial;font-size:7px;kerning:0;word-spacing:-1px;fill:Black;font-weight:bold;">
<tspan x="503" y="33">edm:Place (3975)</tspan>
</text>
<line x1="446" y1="35" x2="622" y2="35"
 style="stroke-width:1;stroke:Black;"/>
<text style="font-family:Arial;font-size:7px;kerning:0;word-spacing:-1px;fill:Black;">
<tspan x="446" y="42">rdf:type (3975) [1]  -&gt; IRI</tspan>
<tspan x="446" y="51">skos:altLabel (521) [*] </tspan>
<tspan x="446" y="60">skos:note (2269) [*] </tspan>
<tspan x="446" y="69">skos:prefLabel (4823) [*] </tspan>
<tspan x="446" y="78">vocab:oaiSourceIdentifier (1.2e5) [*] </tspan>
<tspan x="446" y="87">vocab:oaiSourceRepository (3975) [1]  -&gt; IRI</tspan>
<tspan x="446" y="96">wgs84_pos:lat (817) [*] </tspan>
<tspan x="446" y="105">wgs84_pos:long (842) [*] </tspan>
</text>
</g>
<g id="2002685713"><polygon points="75,173 255,173 255,221 75,221 "
style="fill:#F4D03F; stroke-width:1;stroke:Black;"/>
<text style="font-family:Arial;font-size:7px;kerning:0;word-spacing:-1px;fill:Black;font-weight:bold;">
<tspan x="129" y="183">skos:Concept (4444)</tspan>
</text>
<line x1="77" y1="184" x2="254" y2="184"
 style="stroke-width:1;stroke:Black;"/>
<text style="font-family:Arial;font-size:7px;kerning:0;word-spacing:-1px;fill:Black;">
<tspan x="77" y="191">rdf:type (4444) [1]  -&gt; IRI</tspan>
<tspan x="77" y="200">skos:altLabel (6737) [*] </tspan>
<tspan x="77" y="209">skos:note (2800) [*] </tspan>
<tspan x="77" y="218">skos:prefLabel (4444) [*] </tspan>
</text>
</g>
<g id="2002685724"><polygon points="379,160 559,160 559,388 379,388 "
style="fill:#F4D03F; stroke-width:1;stroke:Black;"/>
<text style="font-family:Arial;font-size:7px;kerning:0;word-spacing:-1px;fill:Black;font-weight:bold;">
<tspan x="425" y="169">edm:ProvidedCHO (5.5e5)</tspan>
</text>
<line x1="382" y1="171" x2="558" y2="171"
 style="stroke-width:1;stroke:Black;"/>
<text style="font-family:Arial;font-size:7px;kerning:0;word-spacing:-1px;fill:Black;">
<tspan x="382" y="178">dc:date (5.5e5) [*] </tspan>
<tspan x="382" y="187">dc:description (8.4e5) [*] </tspan>
<tspan x="382" y="196">dc:format (5.5e5) [*] </tspan>
<tspan x="382" y="205">dc:identifier (9.1e5) [*] </tspan>
<tspan x="382" y="214">dc:language (5.6e5) [*] </tspan>
<tspan x="382" y="223">dc:relation (246) [*] </tspan>
<tspan x="382" y="232">dc:rights (9.4e5) [*] </tspan>
<tspan x="382" y="241">dc:source (10) [*] </tspan>
<tspan x="382" y="250">dc:title (9.1e5) [*] </tspan>
<tspan x="382" y="259">dc:type (8.5e5) [*] </tspan>
<tspan x="382" y="268">dct:alternative (3.2e4) [*] </tspan>
<tspan x="382" y="277">dct:created (510) [*] </tspan>
<tspan x="382" y="286">dct:extent (3.7e5) [*] </tspan>
<tspan x="382" y="295">dct:hasFormat (8) [*] </tspan>
<tspan x="382" y="304">dct:isReferencedBy (3.7e4) [*] </tspan>
<tspan x="382" y="313">dct:isVersionOf (13) [*] </tspan>
<tspan x="382" y="322">dct:issued (2.3e5) [*] </tspan>
<tspan x="382" y="331">dct:medium (5799) [*] </tspan>
<tspan x="382" y="340">dct:provenance (2) [1] </tspan>
<tspan x="382" y="349">dct:tableOfContents (2.5e4) [*] </tspan>
<tspan x="382" y="358">dct:temporal (4.4e4) [*] </tspan>
<tspan x="382" y="367">edm:currentLocation (3.7e5) [*] </tspan>
<tspan x="382" y="376">edm:hasType (3.7e5) [*] </tspan>
<tspan x="382" y="385">edm:type (5.5e5) [*] </tspan>
</text>
</g>
<g id="2002685735"><polygon points="290,404 470,404 470,443 290,443 "
style="fill:#FBECAE; stroke-width:1;stroke:Black;"/>
<text style="font-family:Arial;font-size:7px;kerning:0;word-spacing:-1px;fill:Black;font-weight:bold;">
<tspan x="299" y="414">edm:ProvidedCHO or cc:License S101 (~5.5e5)</tspan>
</text>
<line x1="293" y1="415" x2="469" y2="415"
 style="stroke-width:1;stroke:Black;"/>
<text style="font-family:Arial;font-size:7px;kerning:0;word-spacing:-1px;fill:Black;">
<tspan x="293" y="422">rdf:type (4) [1]  -&gt; IRI</tspan>
<tspan x="293" y="431">vocab:oaiSourceIdentifier (1.1e5) [*] </tspan>
<tspan x="293" y="440">vocab:oaiSourceRepository (4) [1]  -&gt; IRI</tspan>
</text>
</g>
<g id="2002685600"><path d="M559,237 L718,237 "
style="fill:none;stroke-width:1;stroke:Black;"/>
<line x1="714" y1="235" x2="718" y2="237"
 style="stroke-width:1;stroke:Black;"/>
<line x1="714" y1="239" x2="718" y2="237"
 style="stroke-width:1;stroke:Black;"/>
<text style="font-family:Arial;font-size:7px;kerning:0;word-spacing:-1px;fill:Black;">
<tspan x="562" y="191">dc:creator  </tspan>
<tspan x="562" y="200">dc:publisher  </tspan>
<tspan x="562" y="209">dc:subject  </tspan>
<tspan x="562" y="218">dc:contributor  </tspan>
<tspan x="562" y="227">dct:isPartOf  </tspan>
<tspan x="562" y="236">edm:isRelatedTo  </tspan>
</text>
</g>
<g id="2002685610"><path d="M718,92 L623,92 "
style="fill:none;stroke-width:1;stroke:Black;"/>
<line x1="627" y1="90" x2="623" y2="92"
 style="stroke-width:1;stroke:Black;"/>
<line x1="627" y1="94" x2="623" y2="92"
 style="stroke-width:1;stroke:Black;"/>
<text style="font-family:Arial;font-size:7px;kerning:0;word-spacing:-1px;fill:Black;">
<tspan x="671" y="99">owl:sameAs  </tspan>
</text>
</g>
<g id="2002685615"><path d="M137,270 L77,270 75,269 74,266 74,252 75,250 77,248 211,248 214,250 215,252 215,256 "
style="fill:none;stroke-width:1;stroke:Black;"/>
<line x1="213" y1="252" x2="215" y2="256"
 style="stroke-width:1;stroke:Black;"/>
<line x1="217" y1="252" x2="215" y2="256"
 style="stroke-width:1;stroke:Black;"/>
<text style="font-family:Arial;font-size:7px;kerning:0;word-spacing:-1px;fill:Black;">
<tspan x="79" y="278">odrl:inheritFrom  </tspan>
</text>
</g>
<g id="2002685620"><path d="M232,353 L379,353 "
style="fill:none;stroke-width:1;stroke:Black;"/>
<line x1="376" y1="351" x2="379" y2="353"
 style="stroke-width:1;stroke:Black;"/>
<line x1="376" y1="355" x2="379" y2="353"
 style="stroke-width:1;stroke:Black;"/>
<text style="font-family:Arial;font-size:7px;kerning:0;word-spacing:-1px;fill:Black;">
<tspan x="235" y="351">edm:aggregatedCHO  </tspan>
</text>
</g>
<g id="2002685625"><path d="M623,104 L718,104 "
style="fill:none;stroke-width:1;stroke:Black;"/>
<line x1="714" y1="103" x2="718" y2="104"
 style="stroke-width:1;stroke:Black;"/>
<line x1="714" y1="106" x2="718" y2="104"
 style="stroke-width:1;stroke:Black;"/>
<text style="font-family:Arial;font-size:7px;kerning:0;word-spacing:-1px;fill:Black;">
<tspan x="626" y="103">dct:isPartOf  </tspan>
</text>
</g>
<g id="2002685630"><path d="M209,302 L209,283 "
style="fill:none;stroke-width:1;stroke:Black;"/>
<line x1="208" y1="286" x2="209" y2="283"
 style="stroke-width:1;stroke:Black;"/>
<line x1="211" y1="286" x2="209" y2="283"
 style="stroke-width:1;stroke:Black;"/>
<text style="font-family:Arial;font-size:7px;kerning:0;word-spacing:-1px;fill:Black;">
<tspan x="170" y="299">edm:rights  </tspan>
</text>
</g>
<g id="2002685635"><path d="M545,108 L545,160 "
style="fill:none;stroke-width:1;stroke:Black;"/>
<line x1="544" y1="157" x2="545" y2="160"
 style="stroke-width:1;stroke:Black;"/>
<line x1="547" y1="157" x2="545" y2="160"
 style="stroke-width:1;stroke:Black;"/>
<text style="font-family:Arial;font-size:7px;kerning:0;word-spacing:-1px;fill:Black;">
<tspan x="547" y="117">dct:isPartOf  </tspan>
<tspan x="547" y="126">dct:hasPart  </tspan>
</text>
</g>
<g id="2002685640"><path d="M490,160 L490,108 "
style="fill:none;stroke-width:1;stroke:Black;"/>
<line x1="488" y1="112" x2="490" y2="108"
 style="stroke-width:1;stroke:Black;"/>
<line x1="491" y1="112" x2="490" y2="108"
 style="stroke-width:1;stroke:Black;"/>
<text style="font-family:Arial;font-size:7px;kerning:0;word-spacing:-1px;fill:Black;">
<tspan x="447" y="131">dc:subject  </tspan>
<tspan x="447" y="140">dct:spatial  </tspan>
<tspan x="447" y="149">dct:isPartOf  </tspan>
<tspan x="447" y="158">dct:hasPart  </tspan>
</text>
</g>
<g id="2002685645"><path d="M379,246 L255,246 253,245 251,242 251,221 "
style="fill:none;stroke-width:1;stroke:Black;"/>
<line x1="250" y1="225" x2="251" y2="221"
 style="stroke-width:1;stroke:Black;"/>
<line x1="253" y1="225" x2="251" y2="221"
 style="stroke-width:1;stroke:Black;"/>
<text style="font-family:Arial;font-size:7px;kerning:0;word-spacing:-1px;fill:Black;">
<tspan x="340" y="254">dc:subject  </tspan>
</text>
</g>
<g id="2002685660"><path d="M718,179 L559,179 "
style="fill:none;stroke-width:1;stroke:Black;"/>
<line x1="563" y1="178" x2="559" y2="179"
 style="stroke-width:1;stroke:Black;"/>
<line x1="563" y1="181" x2="559" y2="179"
 style="stroke-width:1;stroke:Black;"/>
<text style="font-family:Arial;font-size:7px;kerning:0;word-spacing:-1px;fill:Black;">
<tspan x="655" y="187">edm:isRelatedTo  </tspan>
</text>
</g>
<g id="2002685665"><path d="M470,422 L493,422 495,421 496,419 496,388 "
style="fill:none;stroke-width:1;stroke:Fuchsia;"/>
<polygon points="476,425 470,422 476,419 "
style="fill:Silver;stroke-width:1;stroke:Black;"/>
<text style="font-family:Arial;font-size:7px;kerning:0;word-spacing:-1px;fill:Black;">
<tspan x="473" y="421"> </tspan>
</text>
</g>
<g id="2002685667"><path d="M290,425 L22,425 20,424 19,421 19,243 20,241 22,239 224,239 227,241 228,243 228,256 "
style="fill:none;stroke-width:1;stroke:Fuchsia;"/>
<polygon points="284,428 290,425 284,422 "
style="fill:Silver;stroke-width:1;stroke:Black;"/>
<text style="font-family:Arial;font-size:7px;kerning:0;word-spacing:-1px;fill:Black;">
<tspan x="282" y="432"> </tspan>
</text>
</g>
<g id="2002685655"><path d="M75,184 L10,184 7,183 6,181 6,157 7,155 10,154 160,154 162,155 163,157 163,173 "
style="fill:none;stroke-width:1;stroke:Black;"/>
<line x1="161" y1="170" x2="163" y2="173"
 style="stroke-width:1;stroke:Black;"/>
<line x1="165" y1="170" x2="163" y2="173"
 style="stroke-width:1;stroke:Black;"/>
<text style="font-family:Arial;font-size:7px;kerning:0;word-spacing:-1px;fill:Black;">
<tspan x="14" y="192">skos:closeMatch  </tspan>
<tspan x="14" y="201">skos:related  </tspan>
<tspan x="14" y="210">skos:broader  </tspan>
<tspan x="14" y="219">skos:narrower  </tspan>
</text>
</g>
<g id="2002685595"><path d="M379,173 L284,173 282,172 281,170 281,149 282,146 284,145 413,145 415,146 416,149 416,160 "
style="fill:none;stroke-width:1;stroke:Black;"/>
<line x1="415" y1="157" x2="416" y2="160"
 style="stroke-width:1;stroke:Black;"/>
<line x1="418" y1="157" x2="416" y2="160"
 style="stroke-width:1;stroke:Black;"/>
<text style="font-family:Arial;font-size:7px;kerning:0;word-spacing:-1px;fill:Black;">
<tspan x="297" y="181">dct:isPartOf  </tspan>
<tspan x="297" y="190">dct:isReplacedBy  </tspan>
<tspan x="297" y="199">dct:replaces  </tspan>
<tspan x="297" y="208">dct:hasPart  </tspan>
<tspan x="297" y="217">edm:isRelatedTo  </tspan>
<tspan x="297" y="226">edm:isNextInSequence  </tspan>
</text>
</g>
<g id="2002685650"><path d="M443,43 L392,43 390,41 389,39 389,10 390,7 392,6 505,6 507,7 508,10 508,24 "
style="fill:none;stroke-width:1;stroke:Black;"/>
<line x1="506" y1="20" x2="508" y2="24"
 style="stroke-width:1;stroke:Black;"/>
<line x1="510" y1="20" x2="508" y2="24"
 style="stroke-width:1;stroke:Black;"/>
<text style="font-family:Arial;font-size:7px;kerning:0;word-spacing:-1px;fill:Black;">
<tspan x="397" y="50">dct:isPartOf  </tspan>
<tspan x="397" y="59">dct:hasPart  </tspan>
<tspan x="397" y="68">owl:sameAs  </tspan>
</text>
</g>
<g id="2002685605"><path d="M718,79 L653,79 651,78 650,76 650,59 651,57 653,56 766,56 769,57 770,59 770,76 "
style="fill:none;stroke-width:1;stroke:Black;"/>
<line x1="768" y1="72" x2="770" y2="76"
 style="stroke-width:1;stroke:Black;"/>
<line x1="772" y1="72" x2="770" y2="76"
 style="stroke-width:1;stroke:Black;"/>
<text style="font-family:Arial;font-size:7px;kerning:0;word-spacing:-1px;fill:Black;">
<tspan x="655" y="87">edm:isRelatedTo  </tspan>
</text>
</g>
</svg>
