<?xml version="1.0" encoding="UTF-8" standalone="no"?>
<!DOCTYPE svg PUBLIC "-//W3C//DTD SVG 1.1//EN"
"http://www.w3.org/Graphics/SVG/1.1/DTD/svg11.dtd">
<svg version="1.1" xmlns="http://www.w3.org/2000/svg"
xmlns:xlink="http://www.w3.org/1999/xlink" xml:space="preserve"
 width="802" height="649" viewBox="0 0 802 649">
 onmousemove="movetip(evt)" onmouseup="endmove()">
<rect x="0" y="0" width="100%" height="100%" style="fill:White;"/>
<script type="application/ecmascript"> <![CDATA[
var dragtipid = null; var dragcase = false; function init(evt){
if (window.svgDocument==null) svgDocument = evt.target.ownerDocument;
}
function movetip(evt){if (dragtipid!=null){ dragcase = true;
var tip=svgDocument.getElementById(dragtipid);
tip.setAttributeNS(null,"x",evt.clientX-2);
tip.setAttributeNS(null,"y",evt.clientY-2);
}}
function endmove(){dragtipid = null;}
function startmove(evt,id){dragtipid = id; dragcase = false;
var tip=svgDocument.getElementById(dragtipid);
tip.setAttributeNS(null,"x",evt.clientX-2);
tip.setAttributeNS(null,"y",evt.clientY-2);
}
function Showtip(evt,id){ dragtipid = null;
var tip=svgDocument.getElementById(id);
var vis=tip.getAttributeNS(null,"visibility");
if (vis=="hidden"){
tip.setAttributeNS(null,"x",evt.clientX-2);
tip.setAttributeNS(null,"y",evt.clientY-2);
tip.setAttributeNS(null,"visibility","visible");
}}
function Hidetip(id){ dragtipid = null; if (dragcase==false){
var tip=svgDocument.getElementById(id);
tip.setAttributeNS(null,"visibility","hidden");
}}
]]></script>
<defs><linearGradient id="activ1" x1="0%" y1="0%" x2="100%" y2="0%">
<stop offset="0%" style="stop-color:#FFFF00;stop-opacity:1"/>
<stop offset="100%" style="stop-color:#FFFFF0;stop-opacity:1"/>
</linearGradient></defs>
<g id="2002687551"><polygon points="489,60 789,60 789,395 489,395 "
style="fill:#F4D03F; stroke-width:1;stroke:Black;"/>
<text style="font-family:Arial;font-size:12px;kerning:0;word-spacing:-1px;fill:Black;font-weight:bold;">
<tspan x="590" y="75">e-lion:Log (7.3e6)</tspan>
</text>
<line x1="493" y1="78" x2="787" y2="78"
 style="stroke-width:1;stroke:Black;"/>
<text style="font-family:Arial;font-size:12px;kerning:0;word-spacing:-1px;fill:Black;">
<tspan x="493" y="90">e-lion:logAction (7.3e6) [1] D</tspan>
<tspan x="493" y="105">e-lion:logAnonymous (7.3e6) [1] D</tspan>
<tspan x="493" y="120">e-lion:logComponent (7.3e6) [1] D</tspan>
<tspan x="493" y="135">e-lion:logContextId (7.3e6) [1] D</tspan>
<tspan x="493" y="150">e-lion:logContextInstanceId (7.3e6) [1] D</tspan>
<tspan x="493" y="165">e-lion:logContextLevel (7.3e6) [1] D</tspan>
<tspan x="493" y="180">e-lion:logCrud (7.3e6) [1] D</tspan>
<tspan x="493" y="195">e-lion:logEduLevel (7.3e6) [1] D</tspan>
<tspan x="493" y="210">e-lion:logEventName (7.3e6) [1] D</tspan>
<tspan x="493" y="225">e-lion:logId (7.3e6) [1] D</tspan>
<tspan x="493" y="240">e-lion:logObjectId (4.4e6) [1] D</tspan>
<tspan x="493" y="255">e-lion:logObjectTable (7.3e6) [1] D</tspan>
<tspan x="493" y="270">e-lion:logOrigin (7.3e6) [1] D</tspan>
<tspan x="493" y="285">e-lion:logSumClick (7.3e6) [1] D</tspan>
<tspan x="493" y="300">e-lion:logTarget (7.3e6) [1] D</tspan>
<tspan x="493" y="315">e-lion:logTimeCreated (7.3e6) [1] D</tspan>
<tspan x="493" y="330">e-lion:recordCourse (7.3e6) [1] D -&gt; IRI</tspan>
<tspan x="493" y="345">e-lion:recordUser (6.2e6) [1] D -&gt; IRI</tspan>
<tspan x="493" y="360">e-lion:recordUserReal (4.2e4) [1] D -&gt; IRI</tspan>
<tspan x="493" y="375">e-lion:recordUserRelated (3.2e6) [1] D -&gt; IRI</tspan>
<tspan x="493" y="390">rdf:type (7.3e6) [*]  -&gt; IRI</tspan>
</text>
</g>
<g id="2002687529"><polygon points="129,47 429,47 429,127 129,127 "
style="fill:#F4D03F; stroke-width:1;stroke:Black;"/>
<text style="font-family:Arial;font-size:12px;kerning:0;word-spacing:-1px;fill:Black;font-weight:bold;">
<tspan x="240" y="62">sd:Service (1)</tspan>
</text>
<line x1="133" y1="65" x2="427" y2="65"
 style="stroke-width:1;stroke:Black;"/>
<text style="font-family:Arial;font-size:12px;kerning:0;word-spacing:-1px;fill:Black;">
<tspan x="133" y="77">rdf:type (1) [*]  -&gt; IRI</tspan>
<tspan x="133" y="92">sd:feature (2) [*] D -&gt; IRI</tspan>
<tspan x="133" y="107">sd:resultFormat (8) [*] D -&gt; IRI</tspan>
<tspan x="133" y="122">sd:supportedLanguage (1) [1] D -&gt; IRI</tspan>
</text>
</g>
<g id="2002687518"><polygon points="149,177 449,177 449,242 149,242 "
style="fill:#F4D03F; stroke-width:1;stroke:Black;"/>
<text style="font-family:Arial;font-size:12px;kerning:0;word-spacing:-1px;fill:Black;font-weight:bold;">
<tspan x="262" y="192">owl:Class (3)</tspan>
</text>
<line x1="153" y1="195" x2="447" y2="195"
 style="stroke-width:1;stroke:Black;"/>
<text style="font-family:Arial;font-size:12px;kerning:0;word-spacing:-1px;fill:Black;">
<tspan x="153" y="207">owl:unionOf (1) [1] D -&gt; IRI</tspan>
<tspan x="153" y="222">rdf:type (3) [*]  -&gt; IRI</tspan>
<tspan x="153" y="237">rdfs:label (2) [1] </tspan>
</text>
</g>
<g id="2002687573"><polygon points="138,301 438,301 438,366 138,366 "
style="fill:#F4D03F; stroke-width:1;stroke:Black;"/>
<text style="font-family:Arial;font-size:12px;kerning:0;word-spacing:-1px;fill:Black;font-weight:bold;">
<tspan x="242" y="316">rdf:Property (23)</tspan>
</text>
<line x1="142" y1="319" x2="436" y2="319"
 style="stroke-width:1;stroke:Black;"/>
<text style="font-family:Arial;font-size:12px;kerning:0;word-spacing:-1px;fill:Black;">
<tspan x="142" y="331">rdf:type (28) [*]  -&gt; IRI</tspan>
<tspan x="142" y="346">rdfs:label (23) [1] </tspan>
<tspan x="142" y="361">rdfs:subPropertyOf (2) [1] D -&gt; IRI</tspan>
</text>
</g>
<g id="2002687540"><polygon points="132,408 432,408 432,453 132,453 "
style="fill:#F4D03F; stroke-width:1;stroke:Black;"/>
<text style="font-family:Arial;font-size:12px;kerning:0;word-spacing:-1px;fill:Black;font-weight:bold;">
<tspan x="211" y="423">owl:OntologyProperty (4)</tspan>
</text>
</g>
<g id="2002687584"><polygon points="485,431 785,431 785,476 485,476 "
style="fill:#F4D03F; stroke-width:1;stroke:Black;"/>
<text style="font-family:Arial;font-size:12px;kerning:0;word-spacing:-1px;fill:Black;font-weight:bold;">
<tspan x="559" y="446">owl:AnnotationProperty (5)</tspan>
</text>
<line x1="489" y1="449" x2="783" y2="449"
 style="stroke-width:1;stroke:Black;"/>
<text style="font-family:Arial;font-size:12px;kerning:0;word-spacing:-1px;fill:Black;">
<tspan x="489" y="461">rdf:type (6) [*]  -&gt; IRI</tspan>
</text>
</g>
<g id="2002687562"><polygon points="492,529 792,529 792,639 492,639 "
style="fill:#F4D03F; stroke-width:1;stroke:Black;"/>
<text style="font-family:Arial;font-size:12px;kerning:0;word-spacing:-1px;fill:Black;font-weight:bold;">
<tspan x="596" y="544">owl:Ontology (1)</tspan>
</text>
<line x1="496" y1="547" x2="790" y2="547"
 style="stroke-width:1;stroke:Black;"/>
<text style="font-family:Arial;font-size:12px;kerning:0;word-spacing:-1px;fill:Black;">
<tspan x="496" y="559">owl:imports (1) [1] D -&gt; IRI</tspan>
<tspan x="496" y="574">owl:priorVersion (1) [1] D -&gt; IRI</tspan>
<tspan x="496" y="589">owl:versionInfo (1) [1] D</tspan>
<tspan x="496" y="604">rdf:type (1) [*]  -&gt; IRI</tspan>
<tspan x="496" y="619">rdfs:comment (1) [1] D</tspan>
<tspan x="496" y="634">rdfs:isDefinedBy (3) [*] D -&gt; IRI</tspan>
</text>
</g>
<g id="2002687501"><path d="M149,210 L16,210 12,208 10,204 10,177 12,173 16,171 299,171 299,177 "
style="fill:none;stroke-width:1;stroke:Black;"/>
<line x1="296" y1="171" x2="299" y2="177"
 style="stroke-width:1;stroke:Black;"/>
<line x1="302" y1="171" x2="299" y2="177"
 style="stroke-width:1;stroke:Black;"/>
<text style="font-family:Arial;font-size:12px;kerning:0;word-spacing:-1px;fill:Black;">
<tspan x="18" y="223">owl:complementOf  DR</tspan>
</text>
</g>
<g id="2002687511"><path d="M286,301 L286,242 "
style="fill:none;stroke-width:1;stroke:Black;"/>
<line x1="283" y1="248" x2="286" y2="242"
 style="stroke-width:1;stroke:Black;"/>
<line x1="289" y1="248" x2="286" y2="242"
 style="stroke-width:1;stroke:Black;"/>
<text style="font-family:Arial;font-size:12px;kerning:0;word-spacing:-1px;fill:Black;">
<tspan x="203" y="282">rdfs:domain  D</tspan>
<tspan x="203" y="297">rdfs:range  D</tspan>
</text>
</g>
<g id="2002687516"><path d="M288,366 L288,408 "
style="fill:none;stroke-width:2;stroke:Fuchsia;"/>
<polygon points="293,376 288,366 283,376 "
style="fill:Silver;stroke-width:1;stroke:Black;"/>
<text style="font-family:Arial;font-size:12px;kerning:0;word-spacing:-1px;fill:Black;">
<tspan x="290" y="381"> </tspan>
</text>
</g>
<g id="2002687506"><path d="M129,87 L34,87 30,85 28,81 28,39 30,35 34,33 273,33 277,35 279,39 279,47 "
style="fill:none;stroke-width:1;stroke:Black;"/>
<line x1="276" y1="41" x2="279" y2="47"
 style="stroke-width:1;stroke:Black;"/>
<line x1="282" y1="41" x2="279" y2="47"
 style="stroke-width:1;stroke:Black;"/>
<text style="font-family:Arial;font-size:12px;kerning:0;word-spacing:-1px;fill:Black;">
<tspan x="36" y="100">sd:endpoint  DR</tspan>
<tspan x="36" y="115">sd:url  DR</tspan>
</text>
</g>
</svg>
