<?xml version="1.0" encoding="UTF-8" standalone="no"?>
<!DOCTYPE svg PUBLIC "-//W3C//DTD SVG 1.1//EN"
"http://www.w3.org/Graphics/SVG/1.1/DTD/svg11.dtd">
<svg version="1.1" xmlns="http://www.w3.org/2000/svg"
xmlns:xlink="http://www.w3.org/1999/xlink" xml:space="preserve"
 width="1263" height="779" viewBox="0 0 1263 779">
 onmousemove="movetip(evt)" onmouseup="endmove()">
<rect x="0" y="0" width="100%" height="100%" style="fill:White;"/>
<script type="application/ecmascript"> <![CDATA[
var dragtipid = null; var dragcase = false; function init(evt){
if (window.svgDocument==null) svgDocument = evt.target.ownerDocument;
}
function movetip(evt){if (dragtipid!=null){ dragcase = true;
var tip=svgDocument.getElementById(dragtipid);
tip.setAttributeNS(null,"x",evt.clientX-2);
tip.setAttributeNS(null,"y",evt.clientY-2);
}}
function endmove(){dragtipid = null;}
function startmove(evt,id){dragtipid = id; dragcase = false;
var tip=svgDocument.getElementById(dragtipid);
tip.setAttributeNS(null,"x",evt.clientX-2);
tip.setAttributeNS(null,"y",evt.clientY-2);
}
function Showtip(evt,id){ dragtipid = null;
var tip=svgDocument.getElementById(id);
var vis=tip.getAttributeNS(null,"visibility");
if (vis=="hidden"){
tip.setAttributeNS(null,"x",evt.clientX-2);
tip.setAttributeNS(null,"y",evt.clientY-2);
tip.setAttributeNS(null,"visibility","visible");
}}
function Hidetip(id){ dragtipid = null; if (dragcase==false){
var tip=svgDocument.getElementById(id);
tip.setAttributeNS(null,"visibility","hidden");
}}
]]></script>
<defs><linearGradient id="activ1" x1="0%" y1="0%" x2="100%" y2="0%">
<stop offset="0%" style="stop-color:#FFFF00;stop-opacity:1"/>
<stop offset="100%" style="stop-color:#FFFFF0;stop-opacity:1"/>
</linearGradient></defs>
<g id="2002679596"><polygon points="125,84 395,84 395,124 125,124 "
style="fill:#F4D03F; stroke-width:1;stroke:Black;"/>
<text style="font-family:Arial;font-size:11px;kerning:0;word-spacing:-1px;fill:Black;font-weight:bold;">
<tspan x="212" y="98">skos:Collection (2)</tspan>
</text>
</g>
<g id="2002679563"><polygon points="470,85 740,85 740,143 470,143 "
style="fill:#F4D03F; stroke-width:1;stroke:Black;"/>
<text style="font-family:Arial;font-size:11px;kerning:0;word-spacing:-1px;fill:Black;font-weight:bold;">
<tspan x="538" y="98">owl:NamedIndividual (707)</tspan>
</text>
<line x1="473" y1="101" x2="738" y2="101"
 style="stroke-width:1;stroke:Black;"/>
<text style="font-family:Arial;font-size:11px;kerning:0;word-spacing:-1px;fill:Black;">
<tspan x="473" y="112">rdf:type (1414) [*]  -&gt; IRI</tspan>
<tspan x="473" y="126">skos:definition (703) [*] </tspan>
<tspan x="473" y="140">skos:prefLabel (934) [*] </tspan>
</text>
</g>
<g id="2002679585"><polygon points="64,229 334,229 334,274 64,274 "
style="fill:#F4D03F; stroke-width:1;stroke:Black;"/>
<text style="font-family:Arial;font-size:11px;kerning:0;word-spacing:-1px;fill:Black;font-weight:bold;">
<tspan x="153" y="242">owl:Restriction (1)</tspan>
</text>
<line x1="68" y1="245" x2="332" y2="245"
 style="stroke-width:1;stroke:Black;"/>
<text style="font-family:Arial;font-size:11px;kerning:0;word-spacing:-1px;fill:Black;">
<tspan x="68" y="256">owl:onProperty (1) [1] D -&gt; IRI</tspan>
<tspan x="68" y="270">rdf:type (1) [*]  -&gt; IRI</tspan>
</text>
</g>
<g id="2002679541"><polygon points="458,224 728,224 728,277 458,277 "
style="fill:#F4D03F; stroke-width:1;stroke:Black;"/>
<text style="font-family:Arial;font-size:11px;kerning:0;word-spacing:-1px;fill:Black;font-weight:bold;">
<tspan x="528" y="238">skos:ConceptScheme (1)</tspan>
</text>
</g>
<g id="2002679574"><polygon points="141,434 411,434 411,519 141,519 "
style="fill:#F4D03F; stroke-width:1;stroke:Black;"/>
<text style="font-family:Arial;font-size:11px;kerning:0;word-spacing:-1px;fill:Black;font-weight:bold;">
<tspan x="243" y="448">owl:Class (2)</tspan>
</text>
<line x1="145" y1="450" x2="410" y2="450"
 style="stroke-width:1;stroke:Black;"/>
<text style="font-family:Arial;font-size:11px;kerning:0;word-spacing:-1px;fill:Black;">
<tspan x="145" y="461">owl:intersectionOf (1) [1] D -&gt; IRI</tspan>
<tspan x="145" y="475">rdf:type (2) [*]  -&gt; IRI</tspan>
<tspan x="145" y="489">rdfs:subClassOf (1) [1] D -&gt; IRI</tspan>
<tspan x="145" y="503">skos:definition (2) [*] </tspan>
<tspan x="145" y="517">skos:prefLabel (2) [*] </tspan>
</text>
</g>
<g id="2002679607"><polygon points="578,428 848,428 848,527 578,527 "
style="fill:#F4D03F; stroke-width:1;stroke:Black;"/>
<polygon points="575,430 845,430 845,529 575,529 "
style="fill:#F4D03F; stroke-width:1;stroke:Black;"/>
<text style="font-family:Arial;font-size:11px;kerning:0;word-spacing:-1px;fill:Black;font-weight:bold;">
<tspan x="615" y="444">owl:ObjectProperty et al. G101 (~25)</tspan>
</text>
<line x1="579" y1="446" x2="843" y2="446"
 style="stroke-width:1;stroke:Black;"/>
<text style="font-family:Arial;font-size:11px;kerning:0;word-spacing:-1px;fill:Black;">
<tspan x="579" y="457">rdf:type (25) [*]  -&gt; IRI</tspan>
<tspan x="579" y="471">rdfs:label (47) [*] </tspan>
<tspan x="579" y="485">skos:definition (47) [*] </tspan>
</text>
<text style="font-family:Arial;font-size:10px;kerning:0;word-spacing:-1px;fill:Black;font-weight:bold;">
<tspan x="579" y="498">owl:AnnotationProperty (10)</tspan>
<tspan x="579" y="512">owl:DatatypeProperty (2)</tspan>
<tspan x="579" y="526">owl:ObjectProperty (13)</tspan>
</text>
</g>
<g id="2002679552"><polygon points="914,348 1184,348 1184,770 914,770 "
style="fill:#F4D03F; stroke-width:1;stroke:Black;"/>
<text style="font-family:Arial;font-size:11px;kerning:0;word-spacing:-1px;fill:Black;font-weight:bold;">
<tspan x="1007" y="362">owl:Ontology (2)</tspan>
</text>
<line x1="918" y1="365" x2="1183" y2="365"
 style="stroke-width:1;stroke:Black;"/>
<text style="font-family:Arial;font-size:11px;kerning:0;word-spacing:-1px;fill:Black;">
<tspan x="918" y="376">foaf:homepage (1) [1] D -&gt; IRI</tspan>
<tspan x="918" y="390">owl:priorVersion (1) [1] D -&gt; IRI</tspan>
<tspan x="918" y="404">owl:versionInfo (2) [1] D</tspan>
<tspan x="918" y="418">pav:curatedBy (3) [*] D</tspan>
<tspan x="918" y="432">rdf:type (2) [*]  -&gt; IRI</tspan>
<tspan x="918" y="446">skos:definition (2) [*] </tspan>
<tspan x="918" y="460">terms:accessRights (1) [1] D</tspan>
<tspan x="918" y="474">terms:accrualMethod (3 67%d) [*] D -&gt; IRI</tspan>
<tspan x="918" y="488">terms:accrualPeriodicity (1) [1] D -&gt; IRI</tspan>
<tspan x="918" y="502">terms:accrualPolicy (3 67%d) [*] D -&gt; IRI</tspan>
<tspan x="918" y="516">terms:bibliographicCitation (1) [1] D -&gt; IRI</tspan>
<tspan x="918" y="530">terms:contributor (3) [*] D</tspan>
<tspan x="918" y="544">terms:coverage (1) [1] D</tspan>
<tspan x="918" y="558">terms:created (2) [1] D</tspan>
<tspan x="918" y="572">terms:creator (3 67%d) [*] D -&gt; IRI</tspan>
<tspan x="918" y="586">terms:description (1) [1] D</tspan>
<tspan x="918" y="600">terms:format (3) [*] D -&gt; IRI</tspan>
<tspan x="918" y="614">terms:identifier (1) [1] D -&gt; IRI</tspan>
<tspan x="918" y="628">terms:issued (2) [1] </tspan>
<tspan x="918" y="642">terms:license (2) [1] D -&gt; IRI</tspan>
<tspan x="918" y="656">terms:modified (3) [*] </tspan>
<tspan x="918" y="670">terms:publisher (1) [1] D</tspan>
<tspan x="918" y="684">terms:relation (1) [1] D -&gt; IRI</tspan>
<tspan x="918" y="698">terms:rightsHolder (2) [1] D</tspan>
<tspan x="918" y="712">terms:source (8) [*] D</tspan>
<tspan x="918" y="726">terms:title (4) [*] D</tspan>
<tspan x="918" y="740">vann:preferredNamespacePrefix (1) [1] D</tspan>
<tspan x="918" y="754">vann:preferredNamespaceUri (1) [1] D -&gt; IRI</tspan>
</text>
</g>
<g id="2002679530"><polygon points="863,55 1133,55 1133,291 863,291 "
style="fill:#F4D03F; stroke-width:1;stroke:Black;"/>
<text style="font-family:Arial;font-size:11px;kerning:0;word-spacing:-1px;fill:Black;font-weight:bold;">
<tspan x="948" y="69">skos:Concept (704)</tspan>
</text>
<line x1="867" y1="71" x2="1131" y2="71"
 style="stroke-width:1;stroke:Black;"/>
<text style="font-family:Arial;font-size:11px;kerning:0;word-spacing:-1px;fill:Black;">
<tspan x="867" y="82">frdef:eppo_code (241) [*] D</tspan>
<tspan x="867" y="96">owl:deprecated (1) [1] D</tspan>
<tspan x="867" y="110">rdfs:comment (5 80%d) [*] D -&gt; IRI</tspan>
<tspan x="867" y="124">rdfs:isDefinedBy (702 9%d) [1] D -&gt; IRI</tspan>
<tspan x="867" y="138">rdfs:seeAlso (889 1%d) [*] D -&gt; IRI</tspan>
<tspan x="867" y="152">skos:altLabel (1496) [*] D</tspan>
<tspan x="867" y="166">skos:hiddenLabel (94) [*] D</tspan>
<tspan x="867" y="180">skos:historyNote (1) [1] D</tspan>
<tspan x="867" y="194">skos:note (1722 99.9%d) [*] D -&gt; IRI</tspan>
<tspan x="867" y="208">skos:scopeNote (2) [1] D</tspan>
<tspan x="867" y="222">terms:issued (701) [1] </tspan>
<tspan x="867" y="236">terms:modified (341 99.9%d) [*]  -&gt; IRI</tspan>
</text>
</g>
<g id="2002679494"><path d="M334,263 L458,263 "
style="fill:none;stroke-width:1;stroke:Black;"/>
<line x1="453" y1="260" x2="458" y2="263"
 style="stroke-width:1;stroke:Black;"/>
<line x1="453" y1="266" x2="458" y2="263"
 style="stroke-width:1;stroke:Black;"/>
<text style="font-family:Arial;font-size:11px;kerning:0;word-spacing:-1px;fill:Black;">
<tspan x="338" y="261">owl:hasValue  DR</tspan>
</text>
</g>
<g id="2002679524"><path d="M470,100 L395,100 "
style="fill:none;stroke-width:2;stroke:Fuchsia;"/>
<polygon points="461,104 470,100 461,95 "
style="fill:Silver;stroke-width:1;stroke:Black;"/>
<text style="font-family:Arial;font-size:11px;kerning:0;word-spacing:-1px;fill:Black;">
<tspan x="457" y="112"> </tspan>
</text>
</g>
<g id="2002679499"><path d="M863,262 L728,262 "
style="fill:none;stroke-width:1;stroke:Black;"/>
<line x1="734" y1="259" x2="728" y2="262"
 style="stroke-width:1;stroke:Black;"/>
<line x1="734" y1="265" x2="728" y2="262"
 style="stroke-width:1;stroke:Black;"/>
<text style="font-family:Arial;font-size:11px;kerning:0;word-spacing:-1px;fill:Black;">
<tspan x="744" y="274">skos:inScheme  DR</tspan>
<tspan x="744" y="288">skos:topConceptOf  DR</tspan>
</text>
</g>
<g id="2002679484"><path d="M728,245 L863,245 "
style="fill:none;stroke-width:1;stroke:Black;"/>
<line x1="858" y1="242" x2="863" y2="245"
 style="stroke-width:1;stroke:Black;"/>
<line x1="858" y1="248" x2="863" y2="245"
 style="stroke-width:1;stroke:Black;"/>
<text style="font-family:Arial;font-size:11px;kerning:0;word-spacing:-1px;fill:Black;">
<tspan x="732" y="243">skos:hasTopConcept  DR</tspan>
</text>
</g>
<g id="2002679526"><path d="M597,143 L597,224 "
style="fill:none;stroke-width:2;stroke:Fuchsia;"/>
<polygon points="601,152 597,143 592,152 "
style="fill:Silver;stroke-width:1;stroke:Black;"/>
<text style="font-family:Arial;font-size:11px;kerning:0;word-spacing:-1px;fill:Black;">
<tspan x="599" y="157"> </tspan>
</text>
</g>
<g id="2002679489"><path d="M339,84 L339,27 341,23 345,22 896,22 900,23 902,27 902,55 "
style="fill:none;stroke-width:1;stroke:Black;"/>
<line x1="899" y1="50" x2="902" y2="55"
 style="stroke-width:1;stroke:Black;"/>
<line x1="905" y1="50" x2="902" y2="55"
 style="stroke-width:1;stroke:Black;"/>
<text style="font-family:Arial;font-size:11px;kerning:0;word-spacing:-1px;fill:Black;">
<tspan x="247" y="80">skos:member  DR</tspan>
</text>
</g>
<g id="2002679528"><path d="M740,102 L863,102 "
style="fill:none;stroke-width:2;stroke:Fuchsia;"/>
<polygon points="749,106 740,102 749,97 "
style="fill:Silver;stroke-width:1;stroke:Black;"/>
<text style="font-family:Arial;font-size:11px;kerning:0;word-spacing:-1px;fill:Black;">
<tspan x="744" y="100"> </tspan>
</text>
</g>
<g id="2002679509"><path d="M914,375 L818,375 815,374 813,370 813,343 815,339 818,338 966,338 969,339 971,343 971,348 "
style="fill:none;stroke-width:1;stroke:Black;"/>
<line x1="968" y1="343" x2="971" y2="348"
 style="stroke-width:1;stroke:Black;"/>
<line x1="974" y1="343" x2="971" y2="348"
 style="stroke-width:1;stroke:Black;"/>
<text style="font-family:Arial;font-size:11px;kerning:0;word-spacing:-1px;fill:Black;">
<tspan x="820" y="387">owl:versionIRI  DR</tspan>
<tspan x="820" y="401">owl:imports  D</tspan>
</text>
</g>
<g id="2002679479"><path d="M141,474 L14,474 11,473 9,469 9,408 11,404 14,402 200,402 203,404 205,408 205,434 "
style="fill:none;stroke-width:1;stroke:Black;"/>
<line x1="203" y1="428" x2="205" y2="434"
 style="stroke-width:1;stroke:Black;"/>
<line x1="208" y1="428" x2="205" y2="434"
 style="stroke-width:1;stroke:Black;"/>
<text style="font-family:Arial;font-size:11px;kerning:0;word-spacing:-1px;fill:Black;">
<tspan x="16" y="486">owl:equivalentClass  DR</tspan>
</text>
</g>
<g id="2002679519"><path d="M575,493 L411,493 "
style="fill:none;stroke-width:1;stroke:Black;"/>
<line x1="417" y1="491" x2="411" y2="493"
 style="stroke-width:1;stroke:Black;"/>
<line x1="417" y1="496" x2="411" y2="493"
 style="stroke-width:1;stroke:Black;"/>
<text style="font-family:Arial;font-size:11px;kerning:0;word-spacing:-1px;fill:Black;">
<tspan x="491" y="505">rdfs:range  DR</tspan>
<tspan x="491" y="519">rdfs:domain  DR</tspan>
</text>
</g>
<g id="2002679504"><path d="M575,436 L473,436 469,434 467,430 467,397 469,393 473,392 630,392 634,393 635,397 635,430 "
style="fill:none;stroke-width:1;stroke:Black;"/>
<line x1="633" y1="425" x2="635" y2="430"
 style="stroke-width:1;stroke:Black;"/>
<line x1="638" y1="425" x2="635" y2="430"
 style="stroke-width:1;stroke:Black;"/>
<text style="font-family:Arial;font-size:11px;kerning:0;word-spacing:-1px;fill:Black;">
<tspan x="474" y="448">rdfs:subPropertyOf  </tspan>
<tspan x="474" y="462">owl:inverseOf  DR</tspan>
</text>
</g>
<g id="2002679514"><path d="M1133,120 L1247,120 1251,118 1253,114 1253,40 1251,36 1247,34 1097,34 1094,36 1092,40 1092,55 "
style="fill:none;stroke-width:1;stroke:Black;"/>
<line x1="1089" y1="50" x2="1092" y2="55"
 style="stroke-width:1;stroke:Black;"/>
<line x1="1094" y1="50" x2="1092" y2="55"
 style="stroke-width:1;stroke:Black;"/>
<text style="font-family:Arial;font-size:11px;kerning:0;word-spacing:-1px;fill:Black;">
<tspan x="1137" y="91">skos:broader  DR</tspan>
<tspan x="1137" y="105">skos:narrower  DR</tspan>
<tspan x="1137" y="119">skos:related  DR</tspan>
</text>
</g>
</svg>
